M48
; DRILL file {KiCad (6.0.9-0)} date 
; FORMAT={-:-/ absolute / inch / decimal}
; #@! TF.CreationDate,2022-12-12T21:53:40+09:00
; #@! TF.GenerationSoftware,Kicad,Pcbnew,(6.0.9-0)
; #@! TF.FileFunction,Plated,1,2,PTH
FMAT,2
INCH
; #@! TA.AperFunction,Plated,PTH,ViaDrill
T1C0.0157
; #@! TA.AperFunction,Plated,PTH,ComponentDrill
T2C0.0315
; #@! TA.AperFunction,Plated,PTH,ComponentDrill
T3C0.0591
%
G90
G05
T1
X2.725Y-5.81
X3.395Y-5.475
X3.395Y-5.575
X3.395Y-5.675
X3.395Y-5.77
X3.815Y-5.23
X3.915Y-5.275
X4.7613Y-5.035
X4.8006Y-5.035
X4.84Y-5.035
X4.845Y-5.315
X4.846Y-5.166
X5.515Y-5.24
X5.593Y-5.378
X5.8Y-5.02
X5.9Y-5.225
X5.975Y-5.25
T2
X2.522Y-5.3213
X2.522Y-5.9213
X2.622Y-5.3213
X2.622Y-5.9213
X2.722Y-5.3213
X2.722Y-5.9213
X2.822Y-5.3213
X2.822Y-5.9213
X2.922Y-5.3213
X2.922Y-5.9213
X3.022Y-5.3213
X3.022Y-5.9213
X3.122Y-5.3213
X3.122Y-5.9213
X3.222Y-5.3213
X3.222Y-5.9213
X3.322Y-5.3213
X3.322Y-5.9213
X3.3303Y-5.4213
X3.3303Y-5.5213
X3.3303Y-5.6213
X3.3303Y-5.7213
X3.3303Y-5.8213
X3.515Y-5.16
X3.515Y-5.46
X3.515Y-5.61
X3.515Y-5.91
X3.615Y-5.16
X3.615Y-5.46
X3.615Y-5.61
X3.615Y-5.91
X3.715Y-5.16
X3.715Y-5.46
X3.715Y-5.61
X3.715Y-5.91
X3.815Y-5.16
X3.815Y-5.46
X3.815Y-5.61
X3.815Y-5.91
X3.915Y-5.16
X3.915Y-5.46
X3.915Y-5.61
X3.915Y-5.91
X4.015Y-5.16
X4.015Y-5.46
X4.015Y-5.61
X4.015Y-5.91
X4.115Y-5.16
X4.115Y-5.46
X4.115Y-5.61
X4.115Y-5.91
X4.215Y-5.16
X4.215Y-5.46
X4.215Y-5.61
X4.215Y-5.91
X4.315Y-5.16
X4.315Y-5.46
T3
X2.6625Y-3.1938
X2.6625Y-3.9438
X2.6625Y-4.6937
X2.7125Y-3.0938
X2.7125Y-3.8438
X2.7125Y-4.5938
X2.9125Y-3.0938
X2.9125Y-3.8438
X2.9125Y-4.5938
X2.9625Y-3.1938
X2.9625Y-3.9438
X2.9625Y-4.6937
X3.4125Y-3.0875
X3.4125Y-3.8375
X3.4125Y-4.5875
X3.4625Y-2.9875
X3.4625Y-3.7375
X3.4625Y-4.4875
X3.6625Y-2.9875
X3.6625Y-3.7375
X3.6625Y-4.4875
X3.7125Y-3.0875
X3.7125Y-3.8375
X3.7125Y-4.5875
X4.1625Y-3.0875
X4.1625Y-3.8375
X4.1625Y-4.5875
X4.2125Y-2.9875
X4.2125Y-3.7375
X4.2125Y-4.4875
X4.4125Y-2.9875
X4.4125Y-3.7375
X4.4125Y-4.4875
X4.4625Y-3.0875
X4.4625Y-3.8375
X4.4625Y-4.5875
X4.9125Y-3.0875
X4.9125Y-3.8375
X4.9125Y-4.5875
X4.9125Y-5.7125
X4.9625Y-2.9875
X4.9625Y-3.7375
X4.9625Y-4.4875
X4.9625Y-5.6125
X5.1625Y-2.9875
X5.1625Y-3.7375
X5.1625Y-4.4875
X5.1625Y-5.6125
X5.2125Y-3.0875
X5.2125Y-3.8375
X5.2125Y-4.5875
X5.2125Y-5.7125
X5.6625Y-3.0875
X5.6625Y-3.8375
X5.6625Y-4.5875
X5.6625Y-5.7125
X5.7125Y-2.9875
X5.7125Y-3.7375
X5.7125Y-4.4875
X5.7125Y-5.6125
X5.9125Y-2.9875
X5.9125Y-3.7375
X5.9125Y-4.4875
X5.9125Y-5.6125
X5.9625Y-3.0875
X5.9625Y-3.8375
X5.9625Y-4.5875
X5.9625Y-5.7125
T0
M30
