M48
; DRILL file {KiCad (6.0.9-0)} date 
; FORMAT={-:-/ absolute / inch / decimal}
; #@! TF.CreationDate,2022-12-12T21:53:40+09:00
; #@! TF.GenerationSoftware,Kicad,Pcbnew,(6.0.9-0)
; #@! TF.FileFunction,NonPlated,1,2,NPTH
FMAT,2
INCH
; #@! TA.AperFunction,NonPlated,NPTH,ComponentDrill
T1C0.0591
; #@! TA.AperFunction,NonPlated,NPTH,ComponentDrill
T2C0.0669
; #@! TA.AperFunction,NonPlated,NPTH,ComponentDrill
T3C0.1575
%
G90
G05
T1
X5.8074Y-5.25
X5.8074Y-5.25
X6.083Y-5.25
X6.083Y-5.25
T2
X2.6125Y-3.2937
X2.6125Y-4.0438
X2.6125Y-4.7938
X3.0125Y-3.2937
X3.0125Y-4.0438
X3.0125Y-4.7938
X3.3625Y-3.1875
X3.3625Y-3.9375
X3.3625Y-4.6875
X3.7625Y-3.1875
X3.7625Y-3.9375
X3.7625Y-4.6875
X4.1125Y-3.1875
X4.1125Y-3.9375
X4.1125Y-4.6875
X4.5125Y-3.1875
X4.5125Y-3.9375
X4.5125Y-4.6875
X4.8625Y-3.1875
X4.8625Y-3.9375
X4.8625Y-4.6875
X4.8625Y-5.8125
X5.2625Y-3.1875
X5.2625Y-3.9375
X5.2625Y-4.6875
X5.2625Y-5.8125
X5.6125Y-3.1875
X5.6125Y-3.9375
X5.6125Y-4.6875
X5.6125Y-5.8125
X6.0125Y-3.1875
X6.0125Y-3.9375
X6.0125Y-4.6875
X6.0125Y-5.8125
T3
X2.8125Y-3.2937
X2.8125Y-4.0438
X2.8125Y-4.7938
X3.5625Y-3.1875
X3.5625Y-3.9375
X3.5625Y-4.6875
X4.3125Y-3.1875
X4.3125Y-3.9375
X4.3125Y-4.6875
X5.0625Y-3.1875
X5.0625Y-3.9375
X5.0625Y-4.6875
X5.0625Y-5.8125
X5.8125Y-3.1875
X5.8125Y-3.9375
X5.8125Y-4.6875
X5.8125Y-5.8125
T0
M30
