%TF.GenerationSoftware,KiCad,Pcbnew,(6.0.9-0)*%
%TF.CreationDate,2022-12-12T21:53:38+09:00*%
%TF.ProjectId,moonkey,6d6f6f6e-6b65-4792-9e6b-696361645f70,rev?*%
%TF.SameCoordinates,Original*%
%TF.FileFunction,Copper,L2,Bot*%
%TF.FilePolarity,Positive*%
%FSLAX46Y46*%
G04 Gerber Fmt 4.6, Leading zero omitted, Abs format (unit mm)*
G04 Created by KiCad (PCBNEW (6.0.9-0)) date 2022-12-12 21:53:38*
%MOMM*%
%LPD*%
G01*
G04 APERTURE LIST*
%TA.AperFunction,ComponentPad*%
%ADD10R,1.600000X1.600000*%
%TD*%
%TA.AperFunction,ComponentPad*%
%ADD11O,1.600000X1.600000*%
%TD*%
%TA.AperFunction,ComponentPad*%
%ADD12C,2.200000*%
%TD*%
%TA.AperFunction,ComponentPad*%
%ADD13C,1.600000*%
%TD*%
%TA.AperFunction,SMDPad,CuDef*%
%ADD14R,1.200000X2.500000*%
%TD*%
%TA.AperFunction,ViaPad*%
%ADD15C,0.800000*%
%TD*%
%TA.AperFunction,Conductor*%
%ADD16C,0.250000*%
%TD*%
G04 APERTURE END LIST*
D10*
%TO.P,D16,1,K*%
%TO.N,COL2*%
X101981000Y-142494000D03*
D11*
%TO.P,D16,2,A*%
%TO.N,Net-(D16-Pad2)*%
X101981000Y-150114000D03*
%TD*%
D10*
%TO.P,D2,1,K*%
%TO.N,COL1*%
X91821000Y-138684000D03*
D11*
%TO.P,D2,2,A*%
%TO.N,Net-(D2-Pad2)*%
X91821000Y-131064000D03*
%TD*%
D10*
%TO.P,D15,1,K*%
%TO.N,COL1*%
X99441000Y-142494000D03*
D11*
%TO.P,D15,2,A*%
%TO.N,Net-(D15-Pad2)*%
X99441000Y-150114000D03*
%TD*%
D12*
%TO.P,SW15,1,1*%
%TO.N,Net-(D15-Pad2)*%
X150177500Y-94932500D03*
X145097500Y-94932500D03*
%TO.P,SW15,2,2*%
%TO.N,ROW4*%
X143827500Y-97472500D03*
X151447500Y-97472500D03*
%TD*%
D10*
%TO.P,D7,1,K*%
%TO.N,COL0*%
X104521000Y-138684000D03*
D11*
%TO.P,D7,2,A*%
%TO.N,Net-(D7-Pad2)*%
X104521000Y-131064000D03*
%TD*%
D12*
%TO.P,SW12,2,2*%
%TO.N,ROW3*%
X124777500Y-116522500D03*
X132397500Y-116522500D03*
%TO.P,SW12,1,1*%
%TO.N,Net-(D12-Pad2)*%
X131127500Y-113982500D03*
X126047500Y-113982500D03*
%TD*%
D13*
%TO.P,RZ1,1,GP0*%
%TO.N,ROW0*%
X64058750Y-135160000D03*
%TO.P,RZ1,2,GP1*%
%TO.N,ROW1*%
X66598750Y-135160000D03*
%TO.P,RZ1,3,GP2*%
%TO.N,ROW2*%
X69138750Y-135160000D03*
%TO.P,RZ1,4,GP3*%
%TO.N,SPI0_TX*%
X71678750Y-135160000D03*
%TO.P,RZ1,5,GP4*%
%TO.N,SPI0_RX*%
X74218750Y-135160000D03*
%TO.P,RZ1,6,GP5*%
%TO.N,unconnected-(RZ1-Pad6)*%
X76758750Y-135160000D03*
%TO.P,RZ1,7,GP6*%
%TO.N,unconnected-(RZ1-Pad7)*%
X79298750Y-135160000D03*
%TO.P,RZ1,8,GP7*%
%TO.N,unconnected-(RZ1-Pad8)*%
X81838750Y-135160000D03*
%TO.P,RZ1,9,GP8*%
%TO.N,unconnected-(RZ1-Pad9)*%
X84378750Y-135160000D03*
%TO.P,RZ1,10,GP9*%
%TO.N,unconnected-(RZ1-Pad10)*%
X84588750Y-137700000D03*
%TO.P,RZ1,11,GP10*%
%TO.N,unconnected-(RZ1-Pad11)*%
X84588750Y-140240000D03*
%TO.P,RZ1,12,GP11*%
%TO.N,unconnected-(RZ1-Pad12)*%
X84588750Y-142780000D03*
%TO.P,RZ1,13,GP12*%
%TO.N,unconnected-(RZ1-Pad13)*%
X84588750Y-145320000D03*
%TO.P,RZ1,14,GP13*%
%TO.N,unconnected-(RZ1-Pad14)*%
X84588750Y-147860000D03*
%TO.P,RZ1,15,GP14*%
%TO.N,unconnected-(RZ1-Pad15)*%
X84378750Y-150400000D03*
%TO.P,RZ1,16,GP15*%
%TO.N,unconnected-(RZ1-Pad16)*%
X81838750Y-150400000D03*
%TO.P,RZ1,17,GP26*%
%TO.N,COL3*%
X79298750Y-150400000D03*
%TO.P,RZ1,18,GP27*%
%TO.N,COL2*%
X76758750Y-150400000D03*
%TO.P,RZ1,19,GP28*%
%TO.N,COL1*%
X74218750Y-150400000D03*
%TO.P,RZ1,20,GP29*%
%TO.N,COL0*%
X71678750Y-150400000D03*
%TO.P,RZ1,21,3V3*%
%TO.N,unconnected-(RZ1-Pad21)*%
X69138750Y-150400000D03*
%TO.P,RZ1,22,5V*%
%TO.N,+5V*%
X64058750Y-150400000D03*
%TO.P,RZ1,23,GND*%
%TO.N,Earth*%
X66598750Y-150400000D03*
%TD*%
D12*
%TO.P,SW4,1,1*%
%TO.N,Net-(D4-Pad2)*%
X87947500Y-75882500D03*
X93027500Y-75882500D03*
%TO.P,SW4,2,2*%
%TO.N,ROW1*%
X86677500Y-78422500D03*
X94297500Y-78422500D03*
%TD*%
%TO.P,SW13,1,1*%
%TO.N,Net-(D13-Pad2)*%
X131127500Y-142557500D03*
X126047500Y-142557500D03*
%TO.P,SW13,2,2*%
%TO.N,ROW3*%
X132397500Y-145097500D03*
X124777500Y-145097500D03*
%TD*%
D10*
%TO.P,D12,1,K*%
%TO.N,COL2*%
X94361000Y-142494000D03*
D11*
%TO.P,D12,2,A*%
%TO.N,Net-(D12-Pad2)*%
X94361000Y-150114000D03*
%TD*%
D10*
%TO.P,D5,1,K*%
%TO.N,COL1*%
X99441000Y-138684000D03*
D11*
%TO.P,D5,2,A*%
%TO.N,Net-(D5-Pad2)*%
X99441000Y-131064000D03*
%TD*%
D10*
%TO.P,D3,1,K*%
%TO.N,COL2*%
X89281000Y-138684000D03*
D11*
%TO.P,D3,2,A*%
%TO.N,Net-(D3-Pad2)*%
X89281000Y-131064000D03*
%TD*%
D12*
%TO.P,SW11,1,1*%
%TO.N,Net-(D11-Pad2)*%
X126047500Y-94932500D03*
X131127500Y-94932500D03*
%TO.P,SW11,2,2*%
%TO.N,ROW3*%
X124777500Y-97472500D03*
X132397500Y-97472500D03*
%TD*%
%TO.P,SW9,1,1*%
%TO.N,Net-(D9-Pad2)*%
X106997500Y-113982500D03*
X112077500Y-113982500D03*
%TO.P,SW9,2,2*%
%TO.N,ROW2*%
X105727500Y-116522500D03*
X113347500Y-116522500D03*
%TD*%
D10*
%TO.P,D8,1,K*%
%TO.N,COL1*%
X107061000Y-138684000D03*
D11*
%TO.P,D8,2,A*%
%TO.N,Net-(D8-Pad2)*%
X107061000Y-131064000D03*
%TD*%
D10*
%TO.P,D9,1,K*%
%TO.N,COL2*%
X109601000Y-138684000D03*
D11*
%TO.P,D9,2,A*%
%TO.N,Net-(D9-Pad2)*%
X109601000Y-131064000D03*
%TD*%
D12*
%TO.P,SW7,1,1*%
%TO.N,Net-(D7-Pad2)*%
X106997500Y-75882500D03*
X112077500Y-75882500D03*
%TO.P,SW7,2,2*%
%TO.N,ROW2*%
X113347500Y-78422500D03*
X105727500Y-78422500D03*
%TD*%
D10*
%TO.P,D1,1,K*%
%TO.N,COL0*%
X94361000Y-138684000D03*
D11*
%TO.P,D1,2,A*%
%TO.N,Net-(D1-Pad2)*%
X94361000Y-131064000D03*
%TD*%
D12*
%TO.P,SW5,1,1*%
%TO.N,Net-(D5-Pad2)*%
X87947500Y-94932500D03*
X93027500Y-94932500D03*
%TO.P,SW5,2,2*%
%TO.N,ROW1*%
X94297500Y-97472500D03*
X86677500Y-97472500D03*
%TD*%
%TO.P,SW3,2,2*%
%TO.N,ROW0*%
X67627500Y-119221250D03*
X75247500Y-119221250D03*
%TO.P,SW3,1,1*%
%TO.N,Net-(D3-Pad2)*%
X68897500Y-116681250D03*
X73977500Y-116681250D03*
%TD*%
D10*
%TO.P,D17,1,K*%
%TO.N,COL3*%
X104521000Y-142494000D03*
D11*
%TO.P,D17,2,A*%
%TO.N,Net-(D17-Pad2)*%
X104521000Y-150114000D03*
%TD*%
D10*
%TO.P,D4,1,K*%
%TO.N,COL0*%
X101981000Y-138684000D03*
D11*
%TO.P,D4,2,A*%
%TO.N,Net-(D4-Pad2)*%
X101981000Y-131064000D03*
%TD*%
D12*
%TO.P,SW6,1,1*%
%TO.N,Net-(D6-Pad2)*%
X93027500Y-113982500D03*
X87947500Y-113982500D03*
%TO.P,SW6,2,2*%
%TO.N,ROW1*%
X86677500Y-116522500D03*
X94297500Y-116522500D03*
%TD*%
D10*
%TO.P,D6,1,K*%
%TO.N,COL2*%
X96901000Y-138684000D03*
D11*
%TO.P,D6,2,A*%
%TO.N,Net-(D6-Pad2)*%
X96901000Y-131064000D03*
%TD*%
D12*
%TO.P,SW8,1,1*%
%TO.N,Net-(D8-Pad2)*%
X106997500Y-94932500D03*
X112077500Y-94932500D03*
%TO.P,SW8,2,2*%
%TO.N,ROW2*%
X105727500Y-97472500D03*
X113347500Y-97472500D03*
%TD*%
%TO.P,SW10,1,1*%
%TO.N,Net-(D10-Pad2)*%
X126047500Y-75882500D03*
X131127500Y-75882500D03*
%TO.P,SW10,2,2*%
%TO.N,ROW3*%
X124777500Y-78422500D03*
X132397500Y-78422500D03*
%TD*%
%TO.P,SW14,1,1*%
%TO.N,Net-(D14-Pad2)*%
X145097500Y-75882500D03*
X150177500Y-75882500D03*
%TO.P,SW14,2,2*%
%TO.N,ROW4*%
X151447500Y-78422500D03*
X143827500Y-78422500D03*
%TD*%
%TO.P,SW2,2,2*%
%TO.N,ROW0*%
X75247500Y-100171250D03*
X67627500Y-100171250D03*
%TO.P,SW2,1,1*%
%TO.N,Net-(D2-Pad2)*%
X68897500Y-97631250D03*
X73977500Y-97631250D03*
%TD*%
D10*
%TO.P,D14,1,K*%
%TO.N,COL0*%
X96901000Y-142494000D03*
D11*
%TO.P,D14,2,A*%
%TO.N,Net-(D14-Pad2)*%
X96901000Y-150114000D03*
%TD*%
D12*
%TO.P,SW1,2,2*%
%TO.N,ROW0*%
X67627500Y-81121250D03*
X75247500Y-81121250D03*
%TO.P,SW1,1,1*%
%TO.N,Net-(D1-Pad2)*%
X68897500Y-78581250D03*
X73977500Y-78581250D03*
%TD*%
D10*
%TO.P,D10,1,K*%
%TO.N,COL0*%
X89281000Y-142494000D03*
D11*
%TO.P,D10,2,A*%
%TO.N,Net-(D10-Pad2)*%
X89281000Y-150114000D03*
%TD*%
D10*
%TO.P,D11,1,K*%
%TO.N,COL1*%
X91821000Y-142494000D03*
D11*
%TO.P,D11,2,A*%
%TO.N,Net-(D11-Pad2)*%
X91821000Y-150114000D03*
%TD*%
D12*
%TO.P,SW17,1,1*%
%TO.N,Net-(D17-Pad2)*%
X145097500Y-142557500D03*
X150177500Y-142557500D03*
%TO.P,SW17,2,2*%
%TO.N,ROW4*%
X151447500Y-145097500D03*
X143827500Y-145097500D03*
%TD*%
%TO.P,SW16,1,1*%
%TO.N,Net-(D16-Pad2)*%
X150177500Y-113982500D03*
X145097500Y-113982500D03*
%TO.P,SW16,2,2*%
%TO.N,ROW4*%
X151447500Y-116522500D03*
X143827500Y-116522500D03*
%TD*%
D10*
%TO.P,D13,1,K*%
%TO.N,COL3*%
X107061000Y-142494000D03*
D11*
%TO.P,D13,2,A*%
%TO.N,Net-(D13-Pad2)*%
X107061000Y-150114000D03*
%TD*%
D14*
%TO.P,J1,R1*%
%TO.N,SPI0_TX*%
X149908000Y-130100000D03*
%TO.P,J1,R2*%
%TO.N,SPI0_RX*%
X152908000Y-130100000D03*
%TO.P,J1,S*%
%TO.N,+5V*%
X144808000Y-136600000D03*
%TO.P,J1,T*%
%TO.N,Earth*%
X145908000Y-130100000D03*
%TD*%
D15*
%TO.N,COL0*%
X86233000Y-139065000D03*
%TO.N,COL1*%
X86233000Y-141605000D03*
X99441000Y-133985000D03*
%TO.N,COL2*%
X86233000Y-144145000D03*
X96901000Y-132842000D03*
%TO.N,COL3*%
X86233000Y-146558000D03*
%TO.N,SPI0_TX*%
X121936497Y-127889000D03*
X149860000Y-132715000D03*
%TO.N,SPI0_RX*%
X120936994Y-127889000D03*
X151765000Y-133350000D03*
%TO.N,+5V*%
X142061000Y-136600000D03*
X69215000Y-147574000D03*
X123063000Y-135001000D03*
%TO.N,Earth*%
X122936000Y-127889000D03*
X147320000Y-127508000D03*
%TO.N,ROW4*%
X140081000Y-133096000D03*
X123089000Y-131217000D03*
%TD*%
D16*
%TO.N,ROW4*%
X123089000Y-131217000D02*
X139218000Y-131217000D01*
X139218000Y-131217000D02*
X140081000Y-132080000D01*
%TO.N,COL0*%
X94361000Y-136525000D02*
X95631000Y-135255000D01*
X94361000Y-138684000D02*
X94361000Y-136525000D01*
X95631000Y-135255000D02*
X101981000Y-135255000D01*
X86233000Y-139065000D02*
X77597000Y-139065000D01*
X103378000Y-135255000D02*
X104521000Y-136398000D01*
X101981000Y-138684000D02*
X101981000Y-135255000D01*
X77597000Y-139065000D02*
X71678750Y-144983250D01*
X101981000Y-135255000D02*
X103378000Y-135255000D01*
X104521000Y-136398000D02*
X104521000Y-138684000D01*
X71678750Y-144983250D02*
X71678750Y-150400000D01*
%TO.N,Net-(D1-Pad2)*%
X80518000Y-127381000D02*
X80518000Y-79851250D01*
X78930500Y-78263750D02*
X80518000Y-79851250D01*
X93472000Y-128524000D02*
X94361000Y-129413000D01*
X73977500Y-78263750D02*
X78930500Y-78263750D01*
X81661000Y-128524000D02*
X93472000Y-128524000D01*
X94361000Y-129413000D02*
X94361000Y-131064000D01*
X81661000Y-128524000D02*
X80518000Y-127381000D01*
%TO.N,COL1*%
X91821000Y-138684000D02*
X91821000Y-134620000D01*
X91821000Y-134620000D02*
X92456000Y-133985000D01*
X77851000Y-141605000D02*
X74218750Y-145237250D01*
X107061000Y-135001000D02*
X107061000Y-138684000D01*
X74218750Y-145237250D02*
X74218750Y-150400000D01*
X106045000Y-133985000D02*
X107061000Y-135001000D01*
X86233000Y-141605000D02*
X77851000Y-141605000D01*
X92456000Y-133985000D02*
X106045000Y-133985000D01*
X91821000Y-138684000D02*
X91821000Y-142494000D01*
%TO.N,Net-(D2-Pad2)*%
X91821000Y-129413000D02*
X91440000Y-129032000D01*
X80010000Y-127633604D02*
X80010000Y-98647250D01*
X81408396Y-129032000D02*
X80010000Y-127633604D01*
X91440000Y-129032000D02*
X81408396Y-129032000D01*
X78676500Y-97313750D02*
X73977500Y-97313750D01*
X80010000Y-98647250D02*
X78676500Y-97313750D01*
X91821000Y-131064000D02*
X91821000Y-129413000D01*
%TO.N,COL2*%
X89281000Y-138684000D02*
X89281000Y-133731000D01*
X90170000Y-132842000D02*
X107823000Y-132842000D01*
X78613000Y-144145000D02*
X76758750Y-145999250D01*
X96901000Y-139065000D02*
X94361000Y-141605000D01*
X109601000Y-134620000D02*
X109601000Y-138684000D01*
X94361000Y-141605000D02*
X94361000Y-142494000D01*
X96901000Y-138684000D02*
X96901000Y-139065000D01*
X107823000Y-132842000D02*
X109601000Y-134620000D01*
X89281000Y-133731000D02*
X90170000Y-132842000D01*
X76758750Y-145999250D02*
X76758750Y-150400000D01*
X86233000Y-144145000D02*
X78613000Y-144145000D01*
%TO.N,Net-(D3-Pad2)*%
X79502000Y-127762000D02*
X81280000Y-129540000D01*
X88900000Y-129540000D02*
X89281000Y-129921000D01*
X81280000Y-129540000D02*
X88900000Y-129540000D01*
X89281000Y-129921000D02*
X89281000Y-131064000D01*
X77660500Y-116363750D02*
X79502000Y-118205250D01*
X79502000Y-118205250D02*
X79502000Y-127762000D01*
X73977500Y-116363750D02*
X77660500Y-116363750D01*
%TO.N,Net-(D4-Pad2)*%
X99441000Y-77597000D02*
X99441000Y-127000000D01*
X99441000Y-127000000D02*
X101981000Y-129540000D01*
X93027500Y-75882500D02*
X97726500Y-75882500D01*
X101981000Y-129540000D02*
X101981000Y-131064000D01*
X97726500Y-75882500D02*
X99441000Y-77597000D01*
%TO.N,Net-(D5-Pad2)*%
X93027500Y-94932500D02*
X95948500Y-94932500D01*
X98933000Y-97917000D02*
X98933000Y-127128396D01*
X99441000Y-127636396D02*
X99441000Y-131064000D01*
X98933000Y-127128396D02*
X99441000Y-127636396D01*
X95948500Y-94932500D02*
X98933000Y-97917000D01*
%TO.N,Net-(D6-Pad2)*%
X95821500Y-113982500D02*
X98425000Y-116586000D01*
X98425000Y-116586000D02*
X98425000Y-127000000D01*
X98425000Y-127000000D02*
X96901000Y-128524000D01*
X96901000Y-128524000D02*
X96901000Y-131064000D01*
X93027500Y-113982500D02*
X95821500Y-113982500D01*
%TO.N,Net-(D7-Pad2)*%
X102298500Y-75882500D02*
X100584000Y-77597000D01*
X102489000Y-128016000D02*
X103124000Y-128016000D01*
X100584000Y-126111000D02*
X102489000Y-128016000D01*
X100584000Y-77597000D02*
X100584000Y-126111000D01*
X106997500Y-75882500D02*
X102298500Y-75882500D01*
X104521000Y-129413000D02*
X104521000Y-131064000D01*
X103124000Y-128016000D02*
X104521000Y-129413000D01*
%TO.N,Net-(D8-Pad2)*%
X102743000Y-127508000D02*
X105664000Y-127508000D01*
X105664000Y-127508000D02*
X107061000Y-128905000D01*
X107061000Y-128905000D02*
X107061000Y-131064000D01*
X104076500Y-94932500D02*
X101092000Y-97917000D01*
X101092000Y-97917000D02*
X101092000Y-125857000D01*
X106997500Y-94932500D02*
X104076500Y-94932500D01*
X101092000Y-125857000D02*
X102743000Y-127508000D01*
%TO.N,Net-(D9-Pad2)*%
X104203500Y-113982500D02*
X101600000Y-116586000D01*
X106997500Y-113982500D02*
X104203500Y-113982500D01*
X101600000Y-116586000D02*
X101600000Y-125603000D01*
X109601000Y-129032000D02*
X109601000Y-131064000D01*
X107569000Y-127000000D02*
X109601000Y-129032000D01*
X102997000Y-127000000D02*
X107569000Y-127000000D01*
X101600000Y-125603000D02*
X102997000Y-127000000D01*
%TO.N,Net-(D10-Pad2)*%
X118999000Y-123952000D02*
X112522000Y-130429000D01*
X120459500Y-75882500D02*
X118999000Y-77343000D01*
X112522000Y-130429000D02*
X112522000Y-140970000D01*
X109474000Y-144018000D02*
X90678000Y-144018000D01*
X112522000Y-140970000D02*
X109474000Y-144018000D01*
X118999000Y-77343000D02*
X118999000Y-123952000D01*
X90678000Y-144018000D02*
X89281000Y-145415000D01*
X126047500Y-75882500D02*
X120459500Y-75882500D01*
X89281000Y-145415000D02*
X89281000Y-150114000D01*
%TO.N,Net-(D11-Pad2)*%
X126047500Y-94932500D02*
X122491500Y-94932500D01*
X122491500Y-94932500D02*
X119507000Y-97917000D01*
X119507000Y-97917000D02*
X119507000Y-124206000D01*
X109728000Y-144526000D02*
X92456000Y-144526000D01*
X113030000Y-130683000D02*
X113030000Y-141224000D01*
X92456000Y-144526000D02*
X91821000Y-145161000D01*
X91821000Y-145161000D02*
X91821000Y-150114000D01*
X119507000Y-124206000D02*
X113030000Y-130683000D01*
X113030000Y-141224000D02*
X109728000Y-144526000D01*
%TO.N,Net-(D12-Pad2)*%
X120015000Y-116586000D02*
X120015000Y-124460000D01*
X120015000Y-124460000D02*
X113538000Y-130937000D01*
X122618500Y-113982500D02*
X120015000Y-116586000D01*
X94996000Y-145034000D02*
X94361000Y-145669000D01*
X126047500Y-113982500D02*
X122618500Y-113982500D01*
X113538000Y-141478000D02*
X109982000Y-145034000D01*
X113538000Y-130937000D02*
X113538000Y-141478000D01*
X94361000Y-145669000D02*
X94361000Y-150114000D01*
X109982000Y-145034000D02*
X94996000Y-145034000D01*
%TO.N,COL3*%
X86233000Y-146558000D02*
X80264000Y-146558000D01*
X80264000Y-146558000D02*
X79298750Y-147523250D01*
X79298750Y-147523250D02*
X79298750Y-150400000D01*
%TO.N,Net-(D13-Pad2)*%
X111252000Y-147574000D02*
X107950000Y-147574000D01*
X107061000Y-148463000D02*
X107061000Y-150114000D01*
X107950000Y-147574000D02*
X107061000Y-148463000D01*
X116268500Y-142557500D02*
X111252000Y-147574000D01*
X126047500Y-142557500D02*
X116268500Y-142557500D01*
%TO.N,Net-(D14-Pad2)*%
X120523000Y-124714000D02*
X114046000Y-131191000D01*
X137414000Y-78613000D02*
X137414000Y-119507000D01*
X114046000Y-141732000D02*
X110236000Y-145542000D01*
X110236000Y-145542000D02*
X98044000Y-145542000D01*
X114046000Y-131191000D02*
X114046000Y-141732000D01*
X132207000Y-124714000D02*
X120523000Y-124714000D01*
X98044000Y-145542000D02*
X96901000Y-146685000D01*
X137414000Y-119507000D02*
X132207000Y-124714000D01*
X140144500Y-75882500D02*
X137414000Y-78613000D01*
X145097500Y-75882500D02*
X140144500Y-75882500D01*
X96901000Y-146685000D02*
X96901000Y-150114000D01*
%TO.N,Net-(D15-Pad2)*%
X145097500Y-94932500D02*
X141795500Y-94932500D01*
X137922000Y-119761000D02*
X132461000Y-125222000D01*
X99441000Y-147193000D02*
X99441000Y-150114000D01*
X137922000Y-98806000D02*
X137922000Y-119761000D01*
X110490000Y-146050000D02*
X100584000Y-146050000D01*
X114554000Y-141986000D02*
X110490000Y-146050000D01*
X132461000Y-125222000D02*
X120777000Y-125222000D01*
X120777000Y-125222000D02*
X114554000Y-131445000D01*
X141795500Y-94932500D02*
X137922000Y-98806000D01*
X114554000Y-131445000D02*
X114554000Y-141986000D01*
X100584000Y-146050000D02*
X99441000Y-147193000D01*
%TO.N,Net-(D16-Pad2)*%
X138430000Y-115951000D02*
X138430000Y-120015000D01*
X138430000Y-120015000D02*
X132715000Y-125730000D01*
X101981000Y-147574000D02*
X101981000Y-150114000D01*
X132715000Y-125730000D02*
X121031000Y-125730000D01*
X115062000Y-131699000D02*
X115062000Y-142240000D01*
X121031000Y-125730000D02*
X115062000Y-131699000D01*
X110744000Y-146558000D02*
X102997000Y-146558000D01*
X115062000Y-142240000D02*
X110744000Y-146558000D01*
X102997000Y-146558000D02*
X101981000Y-147574000D01*
X140398500Y-113982500D02*
X138430000Y-115951000D01*
X145097500Y-113982500D02*
X140398500Y-113982500D01*
%TO.N,Net-(D17-Pad2)*%
X104521000Y-148082000D02*
X104521000Y-150114000D01*
X137922000Y-140208000D02*
X117856000Y-140208000D01*
X117856000Y-140208000D02*
X110998000Y-147066000D01*
X105537000Y-147066000D02*
X104521000Y-148082000D01*
X145097500Y-142557500D02*
X140271500Y-142557500D01*
X140271500Y-142557500D02*
X137922000Y-140208000D01*
X110998000Y-147066000D02*
X105537000Y-147066000D01*
%TO.N,SPI0_TX*%
X141097000Y-129032000D02*
X144145000Y-132080000D01*
X121920000Y-127905497D02*
X121920000Y-128524000D01*
X149225000Y-132080000D02*
X147928000Y-132080000D01*
X121936497Y-127889000D02*
X121920000Y-127905497D01*
X144145000Y-132080000D02*
X147928000Y-132080000D01*
X122428000Y-129032000D02*
X141097000Y-129032000D01*
X147928000Y-132080000D02*
X149908000Y-130100000D01*
X121920000Y-128524000D02*
X122428000Y-129032000D01*
X149860000Y-132715000D02*
X149225000Y-132080000D01*
%TO.N,SPI0_RX*%
X140335000Y-129540000D02*
X145288000Y-134493000D01*
X120936994Y-127889000D02*
X120936994Y-128556994D01*
X145288000Y-134493000D02*
X150622000Y-134493000D01*
X151765000Y-133350000D02*
X152908000Y-132207000D01*
X152908000Y-132207000D02*
X152908000Y-130100000D01*
X121920000Y-129540000D02*
X140335000Y-129540000D01*
X150622000Y-134493000D02*
X151765000Y-133350000D01*
X120936994Y-128556994D02*
X121920000Y-129540000D01*
%TO.N,+5V*%
X64058750Y-148412250D02*
X64135000Y-148336000D01*
X64058750Y-150400000D02*
X64058750Y-148412250D01*
X64897000Y-147574000D02*
X69215000Y-147574000D01*
X142061000Y-136600000D02*
X140462000Y-135001000D01*
X140462000Y-135001000D02*
X123063000Y-135001000D01*
X64135000Y-148336000D02*
X64897000Y-147574000D01*
X142061000Y-136600000D02*
X144808000Y-136600000D01*
%TO.N,Earth*%
X144070000Y-130100000D02*
X145908000Y-130100000D01*
X141859000Y-127889000D02*
X144070000Y-130100000D01*
X142240000Y-127508000D02*
X141859000Y-127889000D01*
X147320000Y-127508000D02*
X142240000Y-127508000D01*
X122936000Y-127889000D02*
X141859000Y-127889000D01*
%TO.N,ROW4*%
X140081000Y-132080000D02*
X140081000Y-133096000D01*
%TD*%
M02*
