%TF.GenerationSoftware,KiCad,Pcbnew,(6.0.9-0)*%
%TF.CreationDate,2022-12-12T21:53:38+09:00*%
%TF.ProjectId,moonkey,6d6f6f6e-6b65-4792-9e6b-696361645f70,rev?*%
%TF.SameCoordinates,Original*%
%TF.FileFunction,Legend,Top*%
%TF.FilePolarity,Positive*%
%FSLAX46Y46*%
G04 Gerber Fmt 4.6, Leading zero omitted, Abs format (unit mm)*
G04 Created by KiCad (PCBNEW (6.0.9-0)) date 2022-12-12 21:53:38*
%MOMM*%
%LPD*%
G01*
G04 APERTURE LIST*
%ADD10C,0.000000*%
%ADD11C,0.120000*%
G04 APERTURE END LIST*
D10*
G36*
X114468047Y-149980197D02*
G01*
X114476106Y-149980811D01*
X114484047Y-149981821D01*
X114491862Y-149983218D01*
X114499541Y-149984993D01*
X114507072Y-149987133D01*
X114514447Y-149989631D01*
X114521655Y-149992476D01*
X114528687Y-149995657D01*
X114535531Y-149999165D01*
X114542179Y-150002990D01*
X114548621Y-150007121D01*
X114554845Y-150011549D01*
X114560843Y-150016264D01*
X114566604Y-150021256D01*
X114572118Y-150026514D01*
X114577376Y-150032029D01*
X114582366Y-150037790D01*
X114587081Y-150043788D01*
X114591508Y-150050013D01*
X114595638Y-150056454D01*
X114599462Y-150063102D01*
X114602970Y-150069947D01*
X114606150Y-150076978D01*
X114608994Y-150084185D01*
X114611491Y-150091560D01*
X114613631Y-150099090D01*
X114615405Y-150106767D01*
X114616801Y-150114581D01*
X114617812Y-150122521D01*
X114618425Y-150130577D01*
X114618632Y-150138740D01*
X114618425Y-150146906D01*
X114617812Y-150154964D01*
X114616801Y-150162906D01*
X114615405Y-150170721D01*
X114613631Y-150178399D01*
X114611491Y-150185931D01*
X114608994Y-150193306D01*
X114606150Y-150200514D01*
X114602970Y-150207545D01*
X114599462Y-150214390D01*
X114595638Y-150221038D01*
X114591508Y-150227479D01*
X114587081Y-150233704D01*
X114582366Y-150239701D01*
X114577376Y-150245462D01*
X114572118Y-150250977D01*
X114566604Y-150256234D01*
X114560843Y-150261225D01*
X114554845Y-150265939D01*
X114548621Y-150270366D01*
X114542179Y-150274497D01*
X114535531Y-150278321D01*
X114528687Y-150281828D01*
X114521655Y-150285009D01*
X114514447Y-150287852D01*
X114507072Y-150290349D01*
X114499541Y-150292490D01*
X114491862Y-150294263D01*
X114484047Y-150295660D01*
X114476106Y-150296670D01*
X114468047Y-150297283D01*
X114459882Y-150297490D01*
X114301132Y-150297490D01*
X114292969Y-150297283D01*
X114284912Y-150296670D01*
X114276972Y-150295660D01*
X114269159Y-150294263D01*
X114261482Y-150292490D01*
X114253951Y-150290349D01*
X114246577Y-150287852D01*
X114239370Y-150285009D01*
X114232339Y-150281828D01*
X114225494Y-150278321D01*
X114218846Y-150274497D01*
X114212405Y-150270366D01*
X114206180Y-150265939D01*
X114200182Y-150261225D01*
X114194421Y-150256234D01*
X114188906Y-150250977D01*
X114183647Y-150245462D01*
X114178656Y-150239701D01*
X114173941Y-150233704D01*
X114169513Y-150227479D01*
X114165381Y-150221038D01*
X114161557Y-150214390D01*
X114158049Y-150207545D01*
X114154867Y-150200514D01*
X114152023Y-150193306D01*
X114149525Y-150185931D01*
X114147384Y-150178399D01*
X114145610Y-150170721D01*
X114144213Y-150162906D01*
X114143202Y-150154964D01*
X114142589Y-150146906D01*
X114142382Y-150138740D01*
X114142589Y-150130577D01*
X114143202Y-150122521D01*
X114144213Y-150114581D01*
X114145610Y-150106767D01*
X114147384Y-150099090D01*
X114149525Y-150091560D01*
X114152023Y-150084185D01*
X114154867Y-150076978D01*
X114158049Y-150069947D01*
X114161557Y-150063102D01*
X114165381Y-150056454D01*
X114169513Y-150050013D01*
X114173941Y-150043788D01*
X114178656Y-150037790D01*
X114183647Y-150032029D01*
X114188906Y-150026514D01*
X114194421Y-150021256D01*
X114200182Y-150016264D01*
X114206180Y-150011549D01*
X114212405Y-150007121D01*
X114218846Y-150002990D01*
X114225494Y-149999165D01*
X114232339Y-149995657D01*
X114239370Y-149992476D01*
X114246577Y-149989631D01*
X114253951Y-149987133D01*
X114261482Y-149984993D01*
X114269159Y-149983218D01*
X114276972Y-149981821D01*
X114284912Y-149980811D01*
X114292969Y-149980197D01*
X114301132Y-149979990D01*
X114459882Y-149979990D01*
X114468047Y-149980197D01*
G37*
G36*
X117166797Y-149980197D02*
G01*
X117174855Y-149980811D01*
X117182797Y-149981821D01*
X117190612Y-149983218D01*
X117198291Y-149984993D01*
X117205822Y-149987133D01*
X117213197Y-149989631D01*
X117220405Y-149992476D01*
X117227437Y-149995657D01*
X117234281Y-149999165D01*
X117240929Y-150002990D01*
X117247371Y-150007121D01*
X117253595Y-150011549D01*
X117259593Y-150016264D01*
X117265354Y-150021256D01*
X117270868Y-150026514D01*
X117276126Y-150032029D01*
X117281116Y-150037790D01*
X117285831Y-150043788D01*
X117290258Y-150050013D01*
X117294389Y-150056454D01*
X117298212Y-150063102D01*
X117301720Y-150069947D01*
X117304900Y-150076978D01*
X117307744Y-150084185D01*
X117310241Y-150091560D01*
X117312381Y-150099090D01*
X117314155Y-150106767D01*
X117315551Y-150114581D01*
X117316562Y-150122521D01*
X117317175Y-150130577D01*
X117317382Y-150138740D01*
X117317175Y-150146906D01*
X117316562Y-150154964D01*
X117315551Y-150162906D01*
X117314155Y-150170721D01*
X117312381Y-150178399D01*
X117310241Y-150185931D01*
X117307744Y-150193306D01*
X117304900Y-150200514D01*
X117301720Y-150207545D01*
X117298212Y-150214390D01*
X117294389Y-150221038D01*
X117290258Y-150227479D01*
X117285831Y-150233704D01*
X117281116Y-150239701D01*
X117276126Y-150245462D01*
X117270868Y-150250977D01*
X117265354Y-150256234D01*
X117259593Y-150261225D01*
X117253595Y-150265939D01*
X117247371Y-150270366D01*
X117240929Y-150274497D01*
X117234281Y-150278321D01*
X117227437Y-150281828D01*
X117220405Y-150285009D01*
X117213197Y-150287852D01*
X117205822Y-150290349D01*
X117198291Y-150292490D01*
X117190612Y-150294263D01*
X117182797Y-150295660D01*
X117174855Y-150296670D01*
X117166797Y-150297283D01*
X117158632Y-150297490D01*
X116999881Y-150297490D01*
X116991719Y-150297283D01*
X116983662Y-150296670D01*
X116975722Y-150295660D01*
X116967909Y-150294263D01*
X116960232Y-150292490D01*
X116952701Y-150290349D01*
X116945327Y-150287852D01*
X116938119Y-150285009D01*
X116931088Y-150281828D01*
X116924244Y-150278321D01*
X116917596Y-150274497D01*
X116911155Y-150270366D01*
X116904930Y-150265939D01*
X116898932Y-150261225D01*
X116893170Y-150256234D01*
X116887656Y-150250977D01*
X116882397Y-150245462D01*
X116877406Y-150239701D01*
X116872691Y-150233704D01*
X116868263Y-150227479D01*
X116864131Y-150221038D01*
X116860306Y-150214390D01*
X116856798Y-150207545D01*
X116853617Y-150200514D01*
X116850773Y-150193306D01*
X116848275Y-150185931D01*
X116846134Y-150178399D01*
X116844360Y-150170721D01*
X116842963Y-150162906D01*
X116841952Y-150154964D01*
X116841338Y-150146906D01*
X116841132Y-150138740D01*
X116841338Y-150130577D01*
X116841952Y-150122521D01*
X116842963Y-150114581D01*
X116844360Y-150106767D01*
X116846134Y-150099090D01*
X116848275Y-150091560D01*
X116850773Y-150084185D01*
X116853617Y-150076978D01*
X116856798Y-150069947D01*
X116860306Y-150063102D01*
X116864131Y-150056454D01*
X116868263Y-150050013D01*
X116872691Y-150043788D01*
X116877406Y-150037790D01*
X116882397Y-150032029D01*
X116887656Y-150026514D01*
X116893170Y-150021256D01*
X116898932Y-150016264D01*
X116904930Y-150011549D01*
X116911155Y-150007121D01*
X116917596Y-150002990D01*
X116924244Y-149999165D01*
X116931088Y-149995657D01*
X116938119Y-149992476D01*
X116945327Y-149989631D01*
X116952701Y-149987133D01*
X116960232Y-149984993D01*
X116967909Y-149983218D01*
X116975722Y-149981821D01*
X116983662Y-149980811D01*
X116991719Y-149980197D01*
X116999881Y-149979990D01*
X117158632Y-149979990D01*
X117166797Y-149980197D01*
G37*
G36*
X116373047Y-150244781D02*
G01*
X116381105Y-150245394D01*
X116389047Y-150246405D01*
X116396862Y-150247802D01*
X116404541Y-150249576D01*
X116412072Y-150251717D01*
X116419447Y-150254215D01*
X116426655Y-150257059D01*
X116433687Y-150260240D01*
X116440531Y-150263748D01*
X116447179Y-150267573D01*
X116453620Y-150271705D01*
X116459845Y-150276133D01*
X116465843Y-150280848D01*
X116471604Y-150285839D01*
X116477118Y-150291097D01*
X116482375Y-150296612D01*
X116487366Y-150302374D01*
X116492080Y-150308372D01*
X116496508Y-150314596D01*
X116500638Y-150321038D01*
X116504462Y-150327686D01*
X116507969Y-150334530D01*
X116511150Y-150341561D01*
X116513994Y-150348769D01*
X116516491Y-150356143D01*
X116518631Y-150363673D01*
X116520404Y-150371350D01*
X116521801Y-150379164D01*
X116522811Y-150387104D01*
X116523425Y-150395161D01*
X116523632Y-150403324D01*
X116523425Y-150411489D01*
X116522811Y-150419548D01*
X116521801Y-150427489D01*
X116520404Y-150435304D01*
X116518631Y-150442983D01*
X116516491Y-150450514D01*
X116513994Y-150457889D01*
X116511150Y-150465097D01*
X116507969Y-150472129D01*
X116504462Y-150478974D01*
X116500638Y-150485621D01*
X116496508Y-150492063D01*
X116492080Y-150498287D01*
X116487366Y-150504285D01*
X116482375Y-150510046D01*
X116477118Y-150515560D01*
X116471604Y-150520818D01*
X116465843Y-150525808D01*
X116459845Y-150530523D01*
X116453620Y-150534950D01*
X116447179Y-150539081D01*
X116440531Y-150542904D01*
X116433687Y-150546412D01*
X116426655Y-150549592D01*
X116419447Y-150552436D01*
X116412072Y-150554933D01*
X116404541Y-150557073D01*
X116396862Y-150558847D01*
X116389047Y-150560244D01*
X116381105Y-150561254D01*
X116373047Y-150561867D01*
X116364882Y-150562074D01*
X115094882Y-150562074D01*
X115086719Y-150561867D01*
X115078662Y-150561254D01*
X115070722Y-150560244D01*
X115062909Y-150558847D01*
X115055232Y-150557073D01*
X115047701Y-150554933D01*
X115040327Y-150552436D01*
X115033120Y-150549592D01*
X115026089Y-150546412D01*
X115019244Y-150542904D01*
X115012596Y-150539081D01*
X115006155Y-150534950D01*
X114999930Y-150530523D01*
X114993932Y-150525808D01*
X114988170Y-150520818D01*
X114982656Y-150515560D01*
X114977397Y-150510046D01*
X114972406Y-150504285D01*
X114967691Y-150498287D01*
X114963263Y-150492063D01*
X114959131Y-150485621D01*
X114955306Y-150478974D01*
X114951798Y-150472129D01*
X114948617Y-150465097D01*
X114945773Y-150457889D01*
X114943275Y-150450514D01*
X114941134Y-150442983D01*
X114939360Y-150435304D01*
X114937963Y-150427489D01*
X114936952Y-150419548D01*
X114936338Y-150411489D01*
X114936132Y-150403324D01*
X114936338Y-150395161D01*
X114936952Y-150387104D01*
X114937963Y-150379164D01*
X114939360Y-150371350D01*
X114941134Y-150363673D01*
X114943275Y-150356143D01*
X114945773Y-150348769D01*
X114948617Y-150341561D01*
X114951798Y-150334530D01*
X114955306Y-150327686D01*
X114959131Y-150321038D01*
X114963263Y-150314596D01*
X114967691Y-150308372D01*
X114972406Y-150302374D01*
X114977397Y-150296612D01*
X114982656Y-150291097D01*
X114988170Y-150285839D01*
X114993932Y-150280848D01*
X114999930Y-150276133D01*
X115006155Y-150271705D01*
X115012596Y-150267573D01*
X115019244Y-150263748D01*
X115026089Y-150260240D01*
X115033120Y-150257059D01*
X115040327Y-150254215D01*
X115047701Y-150251717D01*
X115055232Y-150249576D01*
X115062909Y-150247802D01*
X115070722Y-150246405D01*
X115078662Y-150245394D01*
X115086719Y-150244781D01*
X115094882Y-150244574D01*
X116364882Y-150244574D01*
X116373047Y-150244781D01*
G37*
G36*
X113498067Y-148361890D02*
G01*
X113498925Y-148347971D01*
X113500343Y-148334210D01*
X113502307Y-148320618D01*
X113507833Y-148293984D01*
X113515412Y-148268160D01*
X113524954Y-148243238D01*
X113536368Y-148219306D01*
X113549565Y-148196456D01*
X113564453Y-148174778D01*
X113580943Y-148154363D01*
X113598943Y-148135301D01*
X113610737Y-148124600D01*
X114064066Y-148124600D01*
X114070001Y-148156704D01*
X114076551Y-148188616D01*
X114083711Y-148220330D01*
X114091476Y-148251838D01*
X114099842Y-148283133D01*
X114108803Y-148314207D01*
X114118355Y-148345053D01*
X114128492Y-148375663D01*
X114164402Y-148471084D01*
X114205932Y-148563831D01*
X114252898Y-148653667D01*
X114305117Y-148740358D01*
X114362406Y-148823667D01*
X114424582Y-148903358D01*
X114491462Y-148979194D01*
X114562862Y-149050939D01*
X114638599Y-149118359D01*
X114718491Y-149181215D01*
X114802354Y-149239273D01*
X114890004Y-149292296D01*
X114981260Y-149340048D01*
X115075938Y-149382292D01*
X115173854Y-149418794D01*
X115274826Y-149449316D01*
X115354381Y-149468546D01*
X115434026Y-149483694D01*
X115513643Y-149494829D01*
X115593116Y-149502018D01*
X115672327Y-149505328D01*
X115751159Y-149504828D01*
X115829496Y-149500585D01*
X115907220Y-149492667D01*
X115984214Y-149481140D01*
X116060361Y-149466073D01*
X116135544Y-149447534D01*
X116209646Y-149425589D01*
X116282550Y-149400306D01*
X116354139Y-149371753D01*
X116424296Y-149339998D01*
X116492904Y-149305108D01*
X116559846Y-149267151D01*
X116625004Y-149226194D01*
X116688262Y-149182304D01*
X116749503Y-149135550D01*
X116808610Y-149085999D01*
X116865465Y-149033719D01*
X116919952Y-148978777D01*
X116971953Y-148921240D01*
X117021352Y-148861177D01*
X117068031Y-148798655D01*
X117111873Y-148733741D01*
X117152762Y-148666503D01*
X117190581Y-148597009D01*
X117225211Y-148525326D01*
X117256537Y-148451521D01*
X117284441Y-148375663D01*
X117293028Y-148349737D01*
X117301206Y-148323593D01*
X117308972Y-148297231D01*
X117316324Y-148270650D01*
X117323783Y-148241792D01*
X117330704Y-148212889D01*
X117337089Y-148183949D01*
X117342941Y-148154978D01*
X117348262Y-148125983D01*
X117353055Y-148096971D01*
X117357321Y-148067951D01*
X117361064Y-148038928D01*
X117370280Y-147934089D01*
X117372824Y-147829546D01*
X117368816Y-147725589D01*
X117358373Y-147622508D01*
X117341616Y-147520594D01*
X117318663Y-147420139D01*
X117289632Y-147321432D01*
X117254643Y-147224765D01*
X117213814Y-147130429D01*
X117167264Y-147038713D01*
X117115113Y-146949910D01*
X117057478Y-146864309D01*
X116994479Y-146782202D01*
X116926234Y-146703879D01*
X116852863Y-146629631D01*
X116774484Y-146559748D01*
X116770030Y-146590226D01*
X116765103Y-146620636D01*
X116759704Y-146650971D01*
X116753833Y-146681225D01*
X116747490Y-146711393D01*
X116740677Y-146741468D01*
X116733394Y-146771443D01*
X116725641Y-146801313D01*
X116695317Y-146903400D01*
X116659908Y-147002681D01*
X116619597Y-147099050D01*
X116574568Y-147192401D01*
X116525002Y-147282630D01*
X116471083Y-147369631D01*
X116412992Y-147453299D01*
X116350912Y-147533528D01*
X116285026Y-147610213D01*
X116215516Y-147683248D01*
X116142565Y-147752529D01*
X116066355Y-147817951D01*
X115987070Y-147879406D01*
X115904890Y-147936791D01*
X115820000Y-147990000D01*
X115732582Y-148038928D01*
X115651542Y-148079375D01*
X115568722Y-148116160D01*
X115484255Y-148149206D01*
X115398277Y-148178433D01*
X115310923Y-148203765D01*
X115222327Y-148225124D01*
X115132624Y-148242432D01*
X115041949Y-148255612D01*
X114950436Y-148264584D01*
X114858221Y-148269273D01*
X114765438Y-148269599D01*
X114672221Y-148265485D01*
X114578707Y-148256854D01*
X114485028Y-148243627D01*
X114391321Y-148225727D01*
X114297719Y-148203075D01*
X114267966Y-148194858D01*
X114238359Y-148186181D01*
X114208903Y-148177048D01*
X114179603Y-148167459D01*
X114150464Y-148157418D01*
X114121492Y-148146926D01*
X114092691Y-148135986D01*
X114064066Y-148124600D01*
X113610737Y-148124600D01*
X113618363Y-148117682D01*
X113639113Y-148101597D01*
X113661103Y-148087137D01*
X113684241Y-148074391D01*
X113708437Y-148063451D01*
X113733602Y-148054406D01*
X113731100Y-148030140D01*
X113728895Y-148005802D01*
X113726989Y-147981395D01*
X113725382Y-147956920D01*
X113724077Y-147932382D01*
X113723075Y-147907781D01*
X113722377Y-147883120D01*
X113721986Y-147858403D01*
X113722241Y-147847711D01*
X113723205Y-147837146D01*
X113724859Y-147826737D01*
X113727187Y-147816515D01*
X113730171Y-147806509D01*
X113733796Y-147796750D01*
X113738042Y-147787268D01*
X113742895Y-147778092D01*
X113748336Y-147769252D01*
X113754348Y-147760779D01*
X113760915Y-147752702D01*
X113768019Y-147745052D01*
X113775643Y-147737857D01*
X113783771Y-147731149D01*
X113792385Y-147724957D01*
X113801467Y-147719311D01*
X113810909Y-147714288D01*
X113820588Y-147709944D01*
X113830469Y-147706278D01*
X113840518Y-147703291D01*
X113850702Y-147700982D01*
X113860984Y-147699352D01*
X113871331Y-147698399D01*
X113881708Y-147698125D01*
X113892081Y-147698528D01*
X113902415Y-147699609D01*
X113912676Y-147701368D01*
X113922829Y-147703803D01*
X113932839Y-147706916D01*
X113942673Y-147710706D01*
X113952296Y-147715173D01*
X113961672Y-147720317D01*
X114011156Y-147748519D01*
X114061529Y-147774990D01*
X114112746Y-147799712D01*
X114164759Y-147822664D01*
X114217525Y-147843828D01*
X114270996Y-147863184D01*
X114325127Y-147880714D01*
X114379872Y-147896397D01*
X114462671Y-147916321D01*
X114545561Y-147931822D01*
X114628411Y-147942978D01*
X114711088Y-147949863D01*
X114793461Y-147952555D01*
X114875395Y-147951130D01*
X114956761Y-147945665D01*
X115037424Y-147936235D01*
X115117254Y-147922917D01*
X115196117Y-147905788D01*
X115273882Y-147884923D01*
X115350416Y-147860399D01*
X115425586Y-147832293D01*
X115499262Y-147800680D01*
X115571309Y-147765638D01*
X115641597Y-147727242D01*
X115709993Y-147685569D01*
X115776364Y-147640695D01*
X115840579Y-147592697D01*
X115902505Y-147541651D01*
X115962009Y-147487632D01*
X116018960Y-147430719D01*
X116073226Y-147370986D01*
X116124674Y-147308511D01*
X116173171Y-147243369D01*
X116218586Y-147175638D01*
X116260786Y-147105392D01*
X116299639Y-147032710D01*
X116335013Y-146957666D01*
X116366775Y-146880338D01*
X116394794Y-146800802D01*
X116418937Y-146719133D01*
X116432738Y-146663876D01*
X116444631Y-146608228D01*
X116454609Y-146552240D01*
X116462665Y-146495961D01*
X116468795Y-146439440D01*
X116472991Y-146382726D01*
X116475247Y-146325869D01*
X116475558Y-146268919D01*
X116475794Y-146258226D01*
X116476738Y-146247659D01*
X116478374Y-146237247D01*
X116480684Y-146227021D01*
X116483651Y-146217010D01*
X116487259Y-146207244D01*
X116491490Y-146197753D01*
X116496327Y-146188568D01*
X116501754Y-146179718D01*
X116507752Y-146171233D01*
X116514305Y-146163143D01*
X116521397Y-146155478D01*
X116529009Y-146148268D01*
X116537125Y-146141543D01*
X116545728Y-146135333D01*
X116554800Y-146129668D01*
X116564233Y-146124626D01*
X116573903Y-146120262D01*
X116583776Y-146116578D01*
X116593819Y-146113573D01*
X116603996Y-146111246D01*
X116614273Y-146109598D01*
X116624617Y-146108628D01*
X116634992Y-146108336D01*
X116645364Y-146108722D01*
X116655700Y-146109786D01*
X116665963Y-146111527D01*
X116676121Y-146113945D01*
X116686139Y-146117039D01*
X116695981Y-146120811D01*
X116705615Y-146125259D01*
X116715006Y-146130383D01*
X116777249Y-146168688D01*
X116837685Y-146209024D01*
X116896288Y-146251326D01*
X116953032Y-146295529D01*
X117007890Y-146341569D01*
X117060835Y-146389382D01*
X117111843Y-146438902D01*
X117160885Y-146490066D01*
X117207937Y-146542808D01*
X117252970Y-146597065D01*
X117295961Y-146652773D01*
X117336881Y-146709865D01*
X117375704Y-146768279D01*
X117412405Y-146827950D01*
X117446957Y-146888812D01*
X117479333Y-146950803D01*
X117509508Y-147013856D01*
X117537455Y-147077908D01*
X117563147Y-147142895D01*
X117586558Y-147208751D01*
X117607663Y-147275412D01*
X117626434Y-147342815D01*
X117642846Y-147410893D01*
X117656871Y-147479584D01*
X117668484Y-147548822D01*
X117677659Y-147618543D01*
X117684368Y-147688682D01*
X117688586Y-147759176D01*
X117690287Y-147829959D01*
X117689443Y-147900967D01*
X117686030Y-147972135D01*
X117680019Y-148043400D01*
X117694893Y-148046193D01*
X117709531Y-148049631D01*
X117723916Y-148053698D01*
X117738034Y-148058379D01*
X117751869Y-148063659D01*
X117765406Y-148069521D01*
X117778629Y-148075952D01*
X117791523Y-148082934D01*
X117804072Y-148090453D01*
X117816261Y-148098493D01*
X117828074Y-148107039D01*
X117839496Y-148116075D01*
X117850511Y-148125586D01*
X117861105Y-148135556D01*
X117871261Y-148145970D01*
X117880964Y-148156813D01*
X117890199Y-148168069D01*
X117898950Y-148179722D01*
X117907202Y-148191757D01*
X117914939Y-148204159D01*
X117922146Y-148216912D01*
X117928808Y-148230001D01*
X117934908Y-148243410D01*
X117940432Y-148257124D01*
X117945364Y-148271127D01*
X117949688Y-148285405D01*
X117953389Y-148299940D01*
X117956453Y-148314719D01*
X117958862Y-148329725D01*
X117960602Y-148344943D01*
X117961657Y-148360358D01*
X117962013Y-148375954D01*
X117962013Y-150896110D01*
X117961574Y-150913444D01*
X117960271Y-150930552D01*
X117958126Y-150947412D01*
X117955160Y-150964003D01*
X117951394Y-150980305D01*
X117946849Y-150996295D01*
X117941547Y-151011952D01*
X117935508Y-151027255D01*
X117928755Y-151042184D01*
X117921308Y-151056716D01*
X117913188Y-151070831D01*
X117904417Y-151084507D01*
X117895017Y-151097723D01*
X117885007Y-151110457D01*
X117874410Y-151122689D01*
X117863247Y-151134397D01*
X117851539Y-151145561D01*
X117839307Y-151156158D01*
X117826572Y-151166167D01*
X117813356Y-151175568D01*
X117799680Y-151184339D01*
X117785566Y-151192458D01*
X117771033Y-151199906D01*
X117756105Y-151206659D01*
X117740801Y-151212697D01*
X117725144Y-151218000D01*
X117709154Y-151222545D01*
X117692853Y-151226311D01*
X117676262Y-151229277D01*
X117659401Y-151231422D01*
X117642294Y-151232724D01*
X117624960Y-151233163D01*
X113834804Y-151233163D01*
X113817472Y-151232724D01*
X113800367Y-151231422D01*
X113783509Y-151229277D01*
X113766919Y-151226311D01*
X113750620Y-151222545D01*
X113734632Y-151218000D01*
X113718976Y-151212697D01*
X113703674Y-151206659D01*
X113688747Y-151199906D01*
X113674216Y-151192458D01*
X113660103Y-151184339D01*
X113646428Y-151175568D01*
X113633213Y-151166167D01*
X113620479Y-151156158D01*
X113608248Y-151145561D01*
X113596540Y-151134397D01*
X113585378Y-151122689D01*
X113574781Y-151110457D01*
X113564772Y-151097723D01*
X113555372Y-151084507D01*
X113546601Y-151070831D01*
X113538482Y-151056716D01*
X113531035Y-151042184D01*
X113524282Y-151027255D01*
X113518244Y-151011952D01*
X113512941Y-150996295D01*
X113508397Y-150980305D01*
X113504631Y-150964003D01*
X113501664Y-150947412D01*
X113499519Y-150930552D01*
X113498217Y-150913444D01*
X113497778Y-150896125D01*
X113834513Y-150896125D01*
X113834514Y-150896140D01*
X113834516Y-150896155D01*
X113834519Y-150896169D01*
X113834522Y-150896184D01*
X113834526Y-150896198D01*
X113834531Y-150896213D01*
X113834536Y-150896227D01*
X113834542Y-150896241D01*
X113834548Y-150896254D01*
X113834556Y-150896268D01*
X113834563Y-150896281D01*
X113834571Y-150896293D01*
X113834589Y-150896317D01*
X113834599Y-150896329D01*
X113834609Y-150896340D01*
X113834631Y-150896360D01*
X113834642Y-150896369D01*
X113834654Y-150896378D01*
X113834666Y-150896386D01*
X113834679Y-150896394D01*
X113834691Y-150896401D01*
X113834705Y-150896407D01*
X113834718Y-150896412D01*
X113834732Y-150896417D01*
X113834746Y-150896421D01*
X113834760Y-150896424D01*
X113834774Y-150896426D01*
X113834789Y-150896428D01*
X117624977Y-150896428D01*
X117624994Y-150896426D01*
X117625010Y-150896424D01*
X117625027Y-150896421D01*
X117625042Y-150896417D01*
X117625058Y-150896412D01*
X117625073Y-150896407D01*
X117625088Y-150896401D01*
X117625102Y-150896394D01*
X117625116Y-150896386D01*
X117625129Y-150896378D01*
X117625142Y-150896369D01*
X117625154Y-150896360D01*
X117625178Y-150896340D01*
X117625188Y-150896329D01*
X117625199Y-150896317D01*
X117625208Y-150896305D01*
X117625218Y-150896293D01*
X117625226Y-150896281D01*
X117625234Y-150896268D01*
X117625241Y-150896254D01*
X117625248Y-150896241D01*
X117625260Y-150896213D01*
X117625264Y-150896198D01*
X117625268Y-150896184D01*
X117625272Y-150896169D01*
X117625274Y-150896155D01*
X117625276Y-150896140D01*
X117625278Y-150896110D01*
X117625278Y-148375954D01*
X117625277Y-148375939D01*
X117625276Y-148375925D01*
X117625274Y-148375910D01*
X117625272Y-148375896D01*
X117625264Y-148375868D01*
X117625260Y-148375855D01*
X117625248Y-148375829D01*
X117625241Y-148375816D01*
X117625234Y-148375804D01*
X117625226Y-148375792D01*
X117625218Y-148375781D01*
X117625208Y-148375770D01*
X117625199Y-148375759D01*
X117625188Y-148375749D01*
X117625178Y-148375739D01*
X117625166Y-148375730D01*
X117625154Y-148375722D01*
X117625142Y-148375713D01*
X117625116Y-148375699D01*
X117625102Y-148375692D01*
X117625088Y-148375686D01*
X117625058Y-148375676D01*
X117625042Y-148375673D01*
X117625027Y-148375669D01*
X117625010Y-148375667D01*
X117624994Y-148375665D01*
X117624960Y-148375663D01*
X117616758Y-148375663D01*
X117587125Y-148471725D01*
X117552975Y-148565262D01*
X117514461Y-148656187D01*
X117471738Y-148744409D01*
X117424960Y-148829840D01*
X117374281Y-148912390D01*
X117319855Y-148991971D01*
X117261837Y-149068494D01*
X117200381Y-149141870D01*
X117135641Y-149212008D01*
X117067771Y-149278822D01*
X116996926Y-149342221D01*
X116923259Y-149402116D01*
X116846926Y-149458418D01*
X116768079Y-149511039D01*
X116686874Y-149559889D01*
X116603465Y-149604879D01*
X116518005Y-149645920D01*
X116430650Y-149682923D01*
X116341552Y-149715799D01*
X116250868Y-149744459D01*
X116158750Y-149768814D01*
X116065353Y-149788775D01*
X115970831Y-149804253D01*
X115875339Y-149815159D01*
X115779031Y-149821403D01*
X115682060Y-149822897D01*
X115584581Y-149819551D01*
X115486749Y-149811277D01*
X115388718Y-149797986D01*
X115290641Y-149779588D01*
X115192673Y-149755994D01*
X115073679Y-149720070D01*
X114958248Y-149677170D01*
X114846590Y-149627566D01*
X114738916Y-149571532D01*
X114635439Y-149509339D01*
X114536368Y-149441260D01*
X114441916Y-149367568D01*
X114352293Y-149288535D01*
X114267711Y-149204434D01*
X114188381Y-149115537D01*
X114114513Y-149022118D01*
X114046320Y-148924447D01*
X113984012Y-148822799D01*
X113927801Y-148717445D01*
X113877898Y-148608658D01*
X113834513Y-148496710D01*
X113834513Y-150896125D01*
X113497778Y-150896125D01*
X113497778Y-150896110D01*
X113497778Y-148375954D01*
X113498067Y-148361890D01*
G37*
D11*
%TO.C,D16*%
X101981000Y-149074000D02*
X101981000Y-148424000D01*
X103101000Y-144184000D02*
X100861000Y-144184000D01*
X100861000Y-144184000D02*
X100861000Y-148424000D01*
X103101000Y-144904000D02*
X100861000Y-144904000D01*
X101981000Y-143534000D02*
X101981000Y-144184000D01*
X103101000Y-148424000D02*
X103101000Y-144184000D01*
X103101000Y-144784000D02*
X100861000Y-144784000D01*
X100861000Y-148424000D02*
X103101000Y-148424000D01*
X103101000Y-145024000D02*
X100861000Y-145024000D01*
%TO.C,D2*%
X90701000Y-132754000D02*
X90701000Y-136994000D01*
X90701000Y-136394000D02*
X92941000Y-136394000D01*
X92941000Y-136994000D02*
X92941000Y-132754000D01*
X90701000Y-136274000D02*
X92941000Y-136274000D01*
X90701000Y-136994000D02*
X92941000Y-136994000D01*
X91821000Y-137644000D02*
X91821000Y-136994000D01*
X91821000Y-132104000D02*
X91821000Y-132754000D01*
X90701000Y-136154000D02*
X92941000Y-136154000D01*
X92941000Y-132754000D02*
X90701000Y-132754000D01*
%TO.C,D15*%
X98321000Y-148424000D02*
X100561000Y-148424000D01*
X99441000Y-149074000D02*
X99441000Y-148424000D01*
X100561000Y-145024000D02*
X98321000Y-145024000D01*
X99441000Y-143534000D02*
X99441000Y-144184000D01*
X100561000Y-144784000D02*
X98321000Y-144784000D01*
X98321000Y-144184000D02*
X98321000Y-148424000D01*
X100561000Y-148424000D02*
X100561000Y-144184000D01*
X100561000Y-144904000D02*
X98321000Y-144904000D01*
X100561000Y-144184000D02*
X98321000Y-144184000D01*
%TO.C,SW15*%
X140652500Y-106997500D02*
X140652500Y-93027500D01*
X154622500Y-106997500D02*
X140652500Y-106997500D01*
X140652500Y-93027500D02*
X154622500Y-93027500D01*
X154622500Y-93027500D02*
X154622500Y-106997500D01*
%TO.C,D7*%
X103401000Y-136394000D02*
X105641000Y-136394000D01*
X105641000Y-132754000D02*
X103401000Y-132754000D01*
X104521000Y-137644000D02*
X104521000Y-136994000D01*
X103401000Y-136994000D02*
X105641000Y-136994000D01*
X104521000Y-132104000D02*
X104521000Y-132754000D01*
X103401000Y-136154000D02*
X105641000Y-136154000D01*
X105641000Y-136994000D02*
X105641000Y-132754000D01*
X103401000Y-132754000D02*
X103401000Y-136994000D01*
X103401000Y-136274000D02*
X105641000Y-136274000D01*
%TO.C,SW12*%
X135572500Y-126047500D02*
X121602500Y-126047500D01*
X135572500Y-112077500D02*
X135572500Y-126047500D01*
X121602500Y-112077500D02*
X135572500Y-112077500D01*
X121602500Y-126047500D02*
X121602500Y-112077500D01*
%TO.C,RZ1*%
X62468750Y-133780000D02*
X62468750Y-151780000D01*
X85968750Y-133780000D02*
X62468750Y-133780000D01*
X85968750Y-151780000D02*
X85968750Y-133780000D01*
X62468750Y-151780000D02*
X85968750Y-151780000D01*
%TO.C,SW4*%
X83502500Y-73977500D02*
X97472500Y-73977500D01*
X97472500Y-73977500D02*
X97472500Y-87947500D01*
X97472500Y-87947500D02*
X83502500Y-87947500D01*
X83502500Y-87947500D02*
X83502500Y-73977500D01*
%TO.C,SW13*%
X135572500Y-140652500D02*
X135572500Y-154622500D01*
X121602500Y-140652500D02*
X135572500Y-140652500D01*
X121602500Y-154622500D02*
X121602500Y-140652500D01*
X135572500Y-154622500D02*
X121602500Y-154622500D01*
%TO.C,D12*%
X95481000Y-148424000D02*
X95481000Y-144184000D01*
X94361000Y-143534000D02*
X94361000Y-144184000D01*
X95481000Y-144184000D02*
X93241000Y-144184000D01*
X93241000Y-148424000D02*
X95481000Y-148424000D01*
X93241000Y-144184000D02*
X93241000Y-148424000D01*
X95481000Y-144784000D02*
X93241000Y-144784000D01*
X94361000Y-149074000D02*
X94361000Y-148424000D01*
X95481000Y-144904000D02*
X93241000Y-144904000D01*
X95481000Y-145024000D02*
X93241000Y-145024000D01*
%TO.C,D5*%
X98321000Y-136154000D02*
X100561000Y-136154000D01*
X100561000Y-136994000D02*
X100561000Y-132754000D01*
X98321000Y-132754000D02*
X98321000Y-136994000D01*
X98321000Y-136274000D02*
X100561000Y-136274000D01*
X100561000Y-132754000D02*
X98321000Y-132754000D01*
X99441000Y-132104000D02*
X99441000Y-132754000D01*
X98321000Y-136394000D02*
X100561000Y-136394000D01*
X99441000Y-137644000D02*
X99441000Y-136994000D01*
X98321000Y-136994000D02*
X100561000Y-136994000D01*
%TO.C,D3*%
X88161000Y-136154000D02*
X90401000Y-136154000D01*
X88161000Y-136994000D02*
X90401000Y-136994000D01*
X88161000Y-136394000D02*
X90401000Y-136394000D01*
X88161000Y-136274000D02*
X90401000Y-136274000D01*
X89281000Y-137644000D02*
X89281000Y-136994000D01*
X90401000Y-132754000D02*
X88161000Y-132754000D01*
X88161000Y-132754000D02*
X88161000Y-136994000D01*
X90401000Y-136994000D02*
X90401000Y-132754000D01*
X89281000Y-132104000D02*
X89281000Y-132754000D01*
%TO.C,SW11*%
X121602500Y-106997500D02*
X121602500Y-93027500D01*
X135572500Y-93027500D02*
X135572500Y-106997500D01*
X135572500Y-106997500D02*
X121602500Y-106997500D01*
X121602500Y-93027500D02*
X135572500Y-93027500D01*
%TO.C,SW9*%
X116522500Y-126047500D02*
X102552500Y-126047500D01*
X102552500Y-126047500D02*
X102552500Y-112077500D01*
X116522500Y-112077500D02*
X116522500Y-126047500D01*
X102552500Y-112077500D02*
X116522500Y-112077500D01*
%TO.C,D8*%
X107061000Y-137644000D02*
X107061000Y-136994000D01*
X105941000Y-136394000D02*
X108181000Y-136394000D01*
X108181000Y-136994000D02*
X108181000Y-132754000D01*
X108181000Y-132754000D02*
X105941000Y-132754000D01*
X107061000Y-132104000D02*
X107061000Y-132754000D01*
X105941000Y-136274000D02*
X108181000Y-136274000D01*
X105941000Y-136154000D02*
X108181000Y-136154000D01*
X105941000Y-132754000D02*
X105941000Y-136994000D01*
X105941000Y-136994000D02*
X108181000Y-136994000D01*
%TO.C,D9*%
X108481000Y-136274000D02*
X110721000Y-136274000D01*
X108481000Y-136394000D02*
X110721000Y-136394000D01*
X110721000Y-136994000D02*
X110721000Y-132754000D01*
X109601000Y-137644000D02*
X109601000Y-136994000D01*
X108481000Y-132754000D02*
X108481000Y-136994000D01*
X108481000Y-136994000D02*
X110721000Y-136994000D01*
X110721000Y-132754000D02*
X108481000Y-132754000D01*
X109601000Y-132104000D02*
X109601000Y-132754000D01*
X108481000Y-136154000D02*
X110721000Y-136154000D01*
%TO.C,SW7*%
X102552500Y-73977500D02*
X116522500Y-73977500D01*
X116522500Y-87947500D02*
X102552500Y-87947500D01*
X102552500Y-87947500D02*
X102552500Y-73977500D01*
X116522500Y-73977500D02*
X116522500Y-87947500D01*
%TO.C,D1*%
X93241000Y-136994000D02*
X95481000Y-136994000D01*
X95481000Y-136994000D02*
X95481000Y-132754000D01*
X93241000Y-136394000D02*
X95481000Y-136394000D01*
X93241000Y-136154000D02*
X95481000Y-136154000D01*
X94361000Y-137644000D02*
X94361000Y-136994000D01*
X93241000Y-132754000D02*
X93241000Y-136994000D01*
X95481000Y-132754000D02*
X93241000Y-132754000D01*
X94361000Y-132104000D02*
X94361000Y-132754000D01*
X93241000Y-136274000D02*
X95481000Y-136274000D01*
%TO.C,SW5*%
X83502500Y-106997500D02*
X83502500Y-93027500D01*
X83502500Y-93027500D02*
X97472500Y-93027500D01*
X97472500Y-106997500D02*
X83502500Y-106997500D01*
X97472500Y-93027500D02*
X97472500Y-106997500D01*
%TO.C,SW3*%
X64452500Y-128746250D02*
X64452500Y-114776250D01*
X78422500Y-128746250D02*
X64452500Y-128746250D01*
X64452500Y-114776250D02*
X78422500Y-114776250D01*
X78422500Y-114776250D02*
X78422500Y-128746250D01*
%TO.C,D17*%
X104521000Y-143534000D02*
X104521000Y-144184000D01*
X105641000Y-148424000D02*
X105641000Y-144184000D01*
X105641000Y-144904000D02*
X103401000Y-144904000D01*
X103401000Y-144184000D02*
X103401000Y-148424000D01*
X105641000Y-145024000D02*
X103401000Y-145024000D01*
X104521000Y-149074000D02*
X104521000Y-148424000D01*
X105641000Y-144784000D02*
X103401000Y-144784000D01*
X103401000Y-148424000D02*
X105641000Y-148424000D01*
X105641000Y-144184000D02*
X103401000Y-144184000D01*
%TO.C,D4*%
X100861000Y-136274000D02*
X103101000Y-136274000D01*
X101981000Y-137644000D02*
X101981000Y-136994000D01*
X101981000Y-132104000D02*
X101981000Y-132754000D01*
X100861000Y-136394000D02*
X103101000Y-136394000D01*
X103101000Y-136994000D02*
X103101000Y-132754000D01*
X100861000Y-136154000D02*
X103101000Y-136154000D01*
X103101000Y-132754000D02*
X100861000Y-132754000D01*
X100861000Y-132754000D02*
X100861000Y-136994000D01*
X100861000Y-136994000D02*
X103101000Y-136994000D01*
%TO.C,SW6*%
X97472500Y-126047500D02*
X83502500Y-126047500D01*
X83502500Y-126047500D02*
X83502500Y-112077500D01*
X97472500Y-112077500D02*
X97472500Y-126047500D01*
X83502500Y-112077500D02*
X97472500Y-112077500D01*
%TO.C,D6*%
X96901000Y-137644000D02*
X96901000Y-136994000D01*
X98021000Y-136994000D02*
X98021000Y-132754000D01*
X95781000Y-136154000D02*
X98021000Y-136154000D01*
X95781000Y-136274000D02*
X98021000Y-136274000D01*
X95781000Y-132754000D02*
X95781000Y-136994000D01*
X95781000Y-136394000D02*
X98021000Y-136394000D01*
X95781000Y-136994000D02*
X98021000Y-136994000D01*
X98021000Y-132754000D02*
X95781000Y-132754000D01*
X96901000Y-132104000D02*
X96901000Y-132754000D01*
%TO.C,SW8*%
X102552500Y-106997500D02*
X102552500Y-93027500D01*
X102552500Y-93027500D02*
X116522500Y-93027500D01*
X116522500Y-106997500D02*
X102552500Y-106997500D01*
X116522500Y-93027500D02*
X116522500Y-106997500D01*
%TO.C,SW10*%
X135572500Y-73977500D02*
X135572500Y-87947500D01*
X121602500Y-73977500D02*
X135572500Y-73977500D01*
X121602500Y-87947500D02*
X121602500Y-73977500D01*
X135572500Y-87947500D02*
X121602500Y-87947500D01*
%TO.C,SW14*%
X154622500Y-73977500D02*
X154622500Y-87947500D01*
X140652500Y-73977500D02*
X154622500Y-73977500D01*
X154622500Y-87947500D02*
X140652500Y-87947500D01*
X140652500Y-87947500D02*
X140652500Y-73977500D01*
%TO.C,SW2*%
X64452500Y-95726250D02*
X78422500Y-95726250D01*
X78422500Y-95726250D02*
X78422500Y-109696250D01*
X64452500Y-109696250D02*
X64452500Y-95726250D01*
X78422500Y-109696250D02*
X64452500Y-109696250D01*
%TO.C,D14*%
X98021000Y-144784000D02*
X95781000Y-144784000D01*
X96901000Y-149074000D02*
X96901000Y-148424000D01*
X95781000Y-144184000D02*
X95781000Y-148424000D01*
X96901000Y-143534000D02*
X96901000Y-144184000D01*
X98021000Y-145024000D02*
X95781000Y-145024000D01*
X98021000Y-148424000D02*
X98021000Y-144184000D01*
X98021000Y-144184000D02*
X95781000Y-144184000D01*
X98021000Y-144904000D02*
X95781000Y-144904000D01*
X95781000Y-148424000D02*
X98021000Y-148424000D01*
%TO.C,SW1*%
X64452500Y-90646250D02*
X64452500Y-76676250D01*
X78422500Y-76676250D02*
X78422500Y-90646250D01*
X64452500Y-76676250D02*
X78422500Y-76676250D01*
X78422500Y-90646250D02*
X64452500Y-90646250D01*
%TO.C,D10*%
X90401000Y-144184000D02*
X88161000Y-144184000D01*
X89281000Y-143534000D02*
X89281000Y-144184000D01*
X88161000Y-148424000D02*
X90401000Y-148424000D01*
X90401000Y-144904000D02*
X88161000Y-144904000D01*
X90401000Y-148424000D02*
X90401000Y-144184000D01*
X90401000Y-145024000D02*
X88161000Y-145024000D01*
X89281000Y-149074000D02*
X89281000Y-148424000D01*
X90401000Y-144784000D02*
X88161000Y-144784000D01*
X88161000Y-144184000D02*
X88161000Y-148424000D01*
%TO.C,D11*%
X92941000Y-144904000D02*
X90701000Y-144904000D01*
X92941000Y-145024000D02*
X90701000Y-145024000D01*
X91821000Y-143534000D02*
X91821000Y-144184000D01*
X91821000Y-149074000D02*
X91821000Y-148424000D01*
X92941000Y-144784000D02*
X90701000Y-144784000D01*
X90701000Y-148424000D02*
X92941000Y-148424000D01*
X92941000Y-148424000D02*
X92941000Y-144184000D01*
X92941000Y-144184000D02*
X90701000Y-144184000D01*
X90701000Y-144184000D02*
X90701000Y-148424000D01*
%TO.C,SW17*%
X140652500Y-140652500D02*
X154622500Y-140652500D01*
X154622500Y-154622500D02*
X140652500Y-154622500D01*
X140652500Y-154622500D02*
X140652500Y-140652500D01*
X154622500Y-140652500D02*
X154622500Y-154622500D01*
%TO.C,SW16*%
X140652500Y-112077500D02*
X154622500Y-112077500D01*
X154622500Y-126047500D02*
X140652500Y-126047500D01*
X154622500Y-112077500D02*
X154622500Y-126047500D01*
X140652500Y-126047500D02*
X140652500Y-112077500D01*
%TO.C,D13*%
X107061000Y-149074000D02*
X107061000Y-148424000D01*
X108181000Y-144184000D02*
X105941000Y-144184000D01*
X105941000Y-144184000D02*
X105941000Y-148424000D01*
X108181000Y-144904000D02*
X105941000Y-144904000D01*
X107061000Y-143534000D02*
X107061000Y-144184000D01*
X108181000Y-144784000D02*
X105941000Y-144784000D01*
X108181000Y-145024000D02*
X105941000Y-145024000D01*
X108181000Y-148424000D02*
X108181000Y-144184000D01*
X105941000Y-148424000D02*
X108181000Y-148424000D01*
%TO.C,J1*%
X145133000Y-136450000D02*
X144008000Y-136450000D01*
X145133000Y-136450000D02*
X145133000Y-137850000D01*
X152083000Y-136450000D02*
X150733000Y-136450000D01*
X145583000Y-130250000D02*
X156108000Y-130250000D01*
X156108000Y-135850000D02*
X158108000Y-135850000D01*
X156108000Y-130850000D02*
X158108000Y-130850000D01*
X146683000Y-136450000D02*
X146683000Y-137850000D01*
X156108000Y-136450000D02*
X153733000Y-136450000D01*
X156108000Y-136450000D02*
X156108000Y-135850000D01*
X156108000Y-130850000D02*
X156108000Y-130250000D01*
X149083000Y-136450000D02*
X146683000Y-136450000D01*
X158108000Y-135850000D02*
X158108000Y-130850000D01*
X144008000Y-130250000D02*
X144008000Y-136450000D01*
%TD*%
M02*
