<?xml version="1.0" standalone="no"?>
 <!DOCTYPE svg PUBLIC "-//W3C//DTD SVG 1.1//EN" 
 "http://www.w3.org/Graphics/SVG/1.1/DTD/svg11.dtd"> 
<svg
  xmlns:svg="http://www.w3.org/2000/svg"
  xmlns="http://www.w3.org/2000/svg"
  xmlns:xlink="http://www.w3.org/1999/xlink"
  version="1.1"
  width="29.700220cm" height="21.000720cm" viewBox="0 0 297002200 210007200">
<title>SVG Picture created as moonkey-B_Silkscreen.svg date 2022/12/12 17:36:15 </title>
  <desc>Picture generated by PCBNEW </desc>
<g style="fill:#000000; fill-opacity:1.000000;stroke:#000000; stroke-opacity:1.000000;
stroke-linecap:round; stroke-linejoin:round;"
 transform="translate(0 0) scale(1 1)">
</g>
<g style="fill:#000000; fill-opacity:0.0; 
stroke:#000000; stroke-width:0.000000; stroke-opacity:1; 
stroke-linecap:round; stroke-linejoin:round;">
</g>
<g style="fill:#000000; fill-opacity:0.0; 
stroke:#000000; stroke-width:1.000000; stroke-opacity:1; 
stroke-linecap:round; stroke-linejoin:round;">
</g>
<g style="fill:#000000; fill-opacity:1.0; 
stroke:#000000; stroke-width:1.000000; stroke-opacity:1; 
stroke-linecap:round; stroke-linejoin:round;">
<path style="fill:#000000; fill-opacity:1.0; 
stroke:#000000; stroke-width:1.000000; stroke-opacity:1; 
stroke-linecap:round; stroke-linejoin:round;fill-rule:evenodd;"
d="M 117166821.000000,149980197.000000
117174878.000000,149980811.000000
117182818.000000,149981821.000000
117190631.000000,149983218.000000
117198308.000000,149984993.000000
117205839.000000,149987133.000000
117213213.000000,149989631.000000
117220420.000000,149992476.000000
117227451.000000,149995657.000000
117234296.000000,149999165.000000
117240944.000000,150002990.000000
117247385.000000,150007121.000000
117253610.000000,150011549.000000
117259608.000000,150016264.000000
117265369.000000,150021256.000000
117270884.000000,150026514.000000
117276143.000000,150032029.000000
117281134.000000,150037790.000000
117285849.000000,150043788.000000
117290277.000000,150050013.000000
117294409.000000,150056454.000000
117298233.000000,150063102.000000
117301741.000000,150069947.000000
117304923.000000,150076978.000000
117307767.000000,150084185.000000
117310265.000000,150091560.000000
117312406.000000,150099090.000000
117314180.000000,150106767.000000
117315577.000000,150114581.000000
117316588.000000,150122521.000000
117317201.000000,150130577.000000
117317408.000000,150138740.000000
117317201.000000,150146906.000000
117316588.000000,150154964.000000
117315577.000000,150162906.000000
117314180.000000,150170721.000000
117312406.000000,150178399.000000
117310265.000000,150185931.000000
117307767.000000,150193306.000000
117304923.000000,150200514.000000
117301741.000000,150207545.000000
117298233.000000,150214390.000000
117294409.000000,150221038.000000
117290277.000000,150227479.000000
117285849.000000,150233704.000000
117281134.000000,150239701.000000
117276143.000000,150245462.000000
117270884.000000,150250977.000000
117265369.000000,150256234.000000
117259608.000000,150261225.000000
117253610.000000,150265939.000000
117247385.000000,150270366.000000
117240944.000000,150274497.000000
117234296.000000,150278321.000000
117227451.000000,150281828.000000
117220420.000000,150285009.000000
117213213.000000,150287852.000000
117205839.000000,150290349.000000
117198308.000000,150292490.000000
117190631.000000,150294263.000000
117182818.000000,150295660.000000
117174878.000000,150296670.000000
117166821.000000,150297283.000000
117158658.000000,150297490.000000
116999908.000000,150297490.000000
116991743.000000,150297283.000000
116983684.000000,150296670.000000
116975743.000000,150295660.000000
116967928.000000,150294263.000000
116960249.000000,150292490.000000
116952718.000000,150290349.000000
116945343.000000,150287852.000000
116938135.000000,150285009.000000
116931103.000000,150281828.000000
116924259.000000,150278321.000000
116917611.000000,150274497.000000
116911169.000000,150270366.000000
116904945.000000,150265939.000000
116898947.000000,150261225.000000
116893186.000000,150256234.000000
116887672.000000,150250977.000000
116882414.000000,150245462.000000
116877424.000000,150239701.000000
116872709.000000,150233704.000000
116868282.000000,150227479.000000
116864152.000000,150221038.000000
116860328.000000,150214390.000000
116856820.000000,150207545.000000
116853640.000000,150200514.000000
116850796.000000,150193306.000000
116848299.000000,150185931.000000
116846159.000000,150178399.000000
116844385.000000,150170721.000000
116842989.000000,150162906.000000
116841978.000000,150154964.000000
116841365.000000,150146906.000000
116841158.000000,150138740.000000
116841365.000000,150130577.000000
116841978.000000,150122521.000000
116842989.000000,150114581.000000
116844385.000000,150106767.000000
116846159.000000,150099090.000000
116848299.000000,150091560.000000
116850796.000000,150084185.000000
116853640.000000,150076978.000000
116856820.000000,150069947.000000
116860328.000000,150063102.000000
116864152.000000,150056454.000000
116868282.000000,150050013.000000
116872709.000000,150043788.000000
116877424.000000,150037790.000000
116882414.000000,150032029.000000
116887672.000000,150026514.000000
116893186.000000,150021256.000000
116898947.000000,150016264.000000
116904945.000000,150011549.000000
116911169.000000,150007121.000000
116917611.000000,150002990.000000
116924259.000000,149999165.000000
116931103.000000,149995657.000000
116938135.000000,149992476.000000
116945343.000000,149989631.000000
116952718.000000,149987133.000000
116960249.000000,149984993.000000
116967928.000000,149983218.000000
116975743.000000,149981821.000000
116983684.000000,149980811.000000
116991743.000000,149980197.000000
116999908.000000,149979990.000000
117158658.000000,149979990.000000
Z" /> 
<path style="fill:#000000; fill-opacity:1.0; 
stroke:#000000; stroke-width:1.000000; stroke-opacity:1; 
stroke-linecap:round; stroke-linejoin:round;fill-rule:evenodd;"
d="M 114468071.000000,149980197.000000
114476128.000000,149980811.000000
114484068.000000,149981821.000000
114491881.000000,149983218.000000
114499558.000000,149984993.000000
114507089.000000,149987133.000000
114514463.000000,149989631.000000
114521671.000000,149992476.000000
114528702.000000,149995657.000000
114535546.000000,149999165.000000
114542194.000000,150002990.000000
114548635.000000,150007121.000000
114554860.000000,150011549.000000
114560858.000000,150016264.000000
114566620.000000,150021256.000000
114572134.000000,150026514.000000
114577393.000000,150032029.000000
114582384.000000,150037790.000000
114587099.000000,150043788.000000
114591527.000000,150050013.000000
114595659.000000,150056454.000000
114599484.000000,150063102.000000
114602992.000000,150069947.000000
114606173.000000,150076978.000000
114609017.000000,150084185.000000
114611515.000000,150091560.000000
114613656.000000,150099090.000000
114615430.000000,150106767.000000
114616827.000000,150114581.000000
114617838.000000,150122521.000000
114618452.000000,150130577.000000
114618658.000000,150138740.000000
114618452.000000,150146906.000000
114617838.000000,150154964.000000
114616827.000000,150162906.000000
114615430.000000,150170721.000000
114613656.000000,150178399.000000
114611515.000000,150185931.000000
114609017.000000,150193306.000000
114606173.000000,150200514.000000
114602992.000000,150207545.000000
114599484.000000,150214390.000000
114595659.000000,150221038.000000
114591527.000000,150227479.000000
114587099.000000,150233704.000000
114582384.000000,150239701.000000
114577393.000000,150245462.000000
114572134.000000,150250977.000000
114566620.000000,150256234.000000
114560858.000000,150261225.000000
114554860.000000,150265939.000000
114548635.000000,150270366.000000
114542194.000000,150274497.000000
114535546.000000,150278321.000000
114528702.000000,150281828.000000
114521671.000000,150285009.000000
114514463.000000,150287852.000000
114507089.000000,150290349.000000
114499558.000000,150292490.000000
114491881.000000,150294263.000000
114484068.000000,150295660.000000
114476128.000000,150296670.000000
114468071.000000,150297283.000000
114459909.000000,150297490.000000
114301158.000000,150297490.000000
114292993.000000,150297283.000000
114284935.000000,150296670.000000
114276993.000000,150295660.000000
114269178.000000,150294263.000000
114261499.000000,150292490.000000
114253968.000000,150290349.000000
114246593.000000,150287852.000000
114239385.000000,150285009.000000
114232353.000000,150281828.000000
114225509.000000,150278321.000000
114218861.000000,150274497.000000
114212419.000000,150270366.000000
114206195.000000,150265939.000000
114200197.000000,150261225.000000
114194436.000000,150256234.000000
114188922.000000,150250977.000000
114183664.000000,150245462.000000
114178674.000000,150239701.000000
114173959.000000,150233704.000000
114169532.000000,150227479.000000
114165401.000000,150221038.000000
114161578.000000,150214390.000000
114158070.000000,150207545.000000
114154890.000000,150200514.000000
114152046.000000,150193306.000000
114149549.000000,150185931.000000
114147409.000000,150178399.000000
114145635.000000,150170721.000000
114144239.000000,150162906.000000
114143228.000000,150154964.000000
114142615.000000,150146906.000000
114142408.000000,150138740.000000
114142615.000000,150130577.000000
114143228.000000,150122521.000000
114144239.000000,150114581.000000
114145635.000000,150106767.000000
114147409.000000,150099090.000000
114149549.000000,150091560.000000
114152046.000000,150084185.000000
114154890.000000,150076978.000000
114158070.000000,150069947.000000
114161578.000000,150063102.000000
114165401.000000,150056454.000000
114169532.000000,150050013.000000
114173959.000000,150043788.000000
114178674.000000,150037790.000000
114183664.000000,150032029.000000
114188922.000000,150026514.000000
114194436.000000,150021256.000000
114200197.000000,150016264.000000
114206195.000000,150011549.000000
114212419.000000,150007121.000000
114218861.000000,150002990.000000
114225509.000000,149999165.000000
114232353.000000,149995657.000000
114239385.000000,149992476.000000
114246593.000000,149989631.000000
114253968.000000,149987133.000000
114261499.000000,149984993.000000
114269178.000000,149983218.000000
114276993.000000,149981821.000000
114284935.000000,149980811.000000
114292993.000000,149980197.000000
114301158.000000,149979990.000000
114459909.000000,149979990.000000
Z" /> 
<path style="fill:#000000; fill-opacity:1.0; 
stroke:#000000; stroke-width:1.000000; stroke-opacity:1; 
stroke-linecap:round; stroke-linejoin:round;fill-rule:evenodd;"
d="M 116373071.000000,150244781.000000
116381128.000000,150245394.000000
116389068.000000,150246405.000000
116396881.000000,150247802.000000
116404558.000000,150249576.000000
116412089.000000,150251717.000000
116419463.000000,150254215.000000
116426670.000000,150257059.000000
116433701.000000,150260240.000000
116440546.000000,150263748.000000
116447194.000000,150267573.000000
116453635.000000,150271705.000000
116459860.000000,150276133.000000
116465858.000000,150280848.000000
116471620.000000,150285839.000000
116477134.000000,150291097.000000
116482393.000000,150296612.000000
116487384.000000,150302374.000000
116492099.000000,150308372.000000
116496527.000000,150314596.000000
116500659.000000,150321038.000000
116504484.000000,150327686.000000
116507992.000000,150334530.000000
116511173.000000,150341561.000000
116514017.000000,150348769.000000
116516515.000000,150356143.000000
116518656.000000,150363673.000000
116520430.000000,150371350.000000
116521827.000000,150379164.000000
116522838.000000,150387104.000000
116523452.000000,150395161.000000
116523658.000000,150403324.000000
116523452.000000,150411489.000000
116522838.000000,150419548.000000
116521827.000000,150427489.000000
116520430.000000,150435304.000000
116518656.000000,150442983.000000
116516515.000000,150450514.000000
116514017.000000,150457889.000000
116511173.000000,150465097.000000
116507992.000000,150472129.000000
116504484.000000,150478974.000000
116500659.000000,150485621.000000
116496527.000000,150492063.000000
116492099.000000,150498287.000000
116487384.000000,150504285.000000
116482393.000000,150510046.000000
116477134.000000,150515560.000000
116471620.000000,150520818.000000
116465858.000000,150525808.000000
116459860.000000,150530523.000000
116453635.000000,150534950.000000
116447194.000000,150539081.000000
116440546.000000,150542904.000000
116433701.000000,150546412.000000
116426670.000000,150549592.000000
116419463.000000,150552436.000000
116412089.000000,150554933.000000
116404558.000000,150557073.000000
116396881.000000,150558847.000000
116389068.000000,150560244.000000
116381128.000000,150561254.000000
116373071.000000,150561867.000000
116364908.000000,150562074.000000
115094908.000000,150562074.000000
115086743.000000,150561867.000000
115078685.000000,150561254.000000
115070743.000000,150560244.000000
115062928.000000,150558847.000000
115055249.000000,150557073.000000
115047718.000000,150554933.000000
115040343.000000,150552436.000000
115033135.000000,150549592.000000
115026103.000000,150546412.000000
115019259.000000,150542904.000000
115012611.000000,150539081.000000
115006170.000000,150534950.000000
114999945.000000,150530523.000000
114993947.000000,150525808.000000
114988186.000000,150520818.000000
114982672.000000,150515560.000000
114977415.000000,150510046.000000
114972424.000000,150504285.000000
114967710.000000,150498287.000000
114963282.000000,150492063.000000
114959152.000000,150485621.000000
114955328.000000,150478974.000000
114951821.000000,150472129.000000
114948640.000000,150465097.000000
114945796.000000,150457889.000000
114943299.000000,150450514.000000
114941159.000000,150442983.000000
114939386.000000,150435304.000000
114937989.000000,150427489.000000
114936979.000000,150419548.000000
114936365.000000,150411489.000000
114936158.000000,150403324.000000
114936365.000000,150395161.000000
114936979.000000,150387104.000000
114937989.000000,150379164.000000
114939386.000000,150371350.000000
114941159.000000,150363673.000000
114943299.000000,150356143.000000
114945796.000000,150348769.000000
114948640.000000,150341561.000000
114951821.000000,150334530.000000
114955328.000000,150327686.000000
114959152.000000,150321038.000000
114963282.000000,150314596.000000
114967710.000000,150308372.000000
114972424.000000,150302374.000000
114977415.000000,150296612.000000
114982672.000000,150291097.000000
114988186.000000,150285839.000000
114993947.000000,150280848.000000
114999945.000000,150276133.000000
115006170.000000,150271705.000000
115012611.000000,150267573.000000
115019259.000000,150263748.000000
115026103.000000,150260240.000000
115033135.000000,150257059.000000
115040343.000000,150254215.000000
115047718.000000,150251717.000000
115055249.000000,150249576.000000
115062928.000000,150247802.000000
115070743.000000,150246405.000000
115078685.000000,150245394.000000
115086743.000000,150244781.000000
115094908.000000,150244574.000000
116364908.000000,150244574.000000
Z" /> 
<path style="fill:#000000; fill-opacity:1.0; 
stroke:#000000; stroke-width:1.000000; stroke-opacity:1; 
stroke-linecap:round; stroke-linejoin:round;fill-rule:evenodd;"
d="M 117960271.000000,150930552.000000
117958126.000000,150947412.000000
117955159.000000,150964003.000000
117951393.000000,150980305.000000
117946849.000000,150996295.000000
117941546.000000,151011952.000000
117935508.000000,151027255.000000
117928755.000000,151042184.000000
117921308.000000,151056716.000000
117913189.000000,151070831.000000
117904418.000000,151084507.000000
117895018.000000,151097723.000000
117885009.000000,151110457.000000
117874412.000000,151122689.000000
117863250.000000,151134397.000000
117851542.000000,151145561.000000
117839311.000000,151156158.000000
117826577.000000,151166167.000000
117813362.000000,151175568.000000
117799687.000000,151184339.000000
117785574.000000,151192458.000000
117771043.000000,151199906.000000
117756116.000000,151206659.000000
117740814.000000,151212697.000000
117725158.000000,151218000.000000
117709170.000000,151222545.000000
117692871.000000,151226311.000000
117676281.000000,151229277.000000
117659423.000000,151231422.000000
117642318.000000,151232724.000000
117624986.000000,151233163.000000
113834830.000000,151233163.000000
113817496.000000,151232724.000000
113800389.000000,151231422.000000
113783528.000000,151229277.000000
113766937.000000,151226311.000000
113750636.000000,151222545.000000
113734646.000000,151218000.000000
113718989.000000,151212697.000000
113703685.000000,151206659.000000
113688757.000000,151199906.000000
113674224.000000,151192458.000000
113660110.000000,151184339.000000
113646434.000000,151175568.000000
113633218.000000,151166167.000000
113620483.000000,151156158.000000
113608251.000000,151145561.000000
113596543.000000,151134397.000000
113585380.000000,151122689.000000
113574783.000000,151110457.000000
113564773.000000,151097723.000000
113555373.000000,151084507.000000
113546602.000000,151070831.000000
113538482.000000,151056716.000000
113531035.000000,151042184.000000
113524282.000000,151027255.000000
113518243.000000,151011952.000000
113512941.000000,150996295.000000
113508396.000000,150980305.000000
113504630.000000,150964003.000000
113501664.000000,150947412.000000
113499519.000000,150930552.000000
113498216.000000,150913444.000000
113497777.000000,150896110.000000
113834512.000000,150896110.000000
113834514.000000,150896140.000000
113834516.000000,150896155.000000
113834518.000000,150896169.000000
113834522.000000,150896184.000000
113834526.000000,150896198.000000
113834530.000000,150896213.000000
113834542.000000,150896241.000000
113834549.000000,150896254.000000
113834556.000000,150896268.000000
113834564.000000,150896281.000000
113834572.000000,150896293.000000
113834582.000000,150896305.000000
113834591.000000,150896317.000000
113834602.000000,150896329.000000
113834612.000000,150896340.000000
113834636.000000,150896360.000000
113834648.000000,150896369.000000
113834661.000000,150896378.000000
113834674.000000,150896386.000000
113834688.000000,150896394.000000
113834702.000000,150896401.000000
113834717.000000,150896407.000000
113834732.000000,150896412.000000
113834748.000000,150896417.000000
113834763.000000,150896421.000000
113834780.000000,150896424.000000
113834796.000000,150896426.000000
113834813.000000,150896428.000000
117625001.000000,150896428.000000
117625016.000000,150896426.000000
117625030.000000,150896424.000000
117625044.000000,150896421.000000
117625058.000000,150896417.000000
117625072.000000,150896412.000000
117625085.000000,150896407.000000
117625099.000000,150896401.000000
117625111.000000,150896394.000000
117625124.000000,150896386.000000
117625136.000000,150896378.000000
117625148.000000,150896369.000000
117625159.000000,150896360.000000
117625181.000000,150896340.000000
117625191.000000,150896329.000000
117625201.000000,150896317.000000
117625219.000000,150896293.000000
117625227.000000,150896281.000000
117625234.000000,150896268.000000
117625242.000000,150896254.000000
117625248.000000,150896241.000000
117625254.000000,150896227.000000
117625259.000000,150896213.000000
117625264.000000,150896198.000000
117625268.000000,150896184.000000
117625271.000000,150896169.000000
117625274.000000,150896155.000000
117625276.000000,150896140.000000
117625277.000000,150896125.000000
117625277.000000,148496710.000000
117581892.000000,148608658.000000
117531989.000000,148717445.000000
117475778.000000,148822799.000000
117413470.000000,148924447.000000
117345277.000000,149022118.000000
117271409.000000,149115537.000000
117192079.000000,149204434.000000
117107497.000000,149288535.000000
117017874.000000,149367568.000000
116923422.000000,149441260.000000
116824351.000000,149509339.000000
116720874.000000,149571532.000000
116613200.000000,149627566.000000
116501542.000000,149677170.000000
116386111.000000,149720070.000000
116267117.000000,149755994.000000
116169149.000000,149779588.000000
116071072.000000,149797986.000000
115973041.000000,149811277.000000
115875209.000000,149819551.000000
115777730.000000,149822897.000000
115680759.000000,149821403.000000
115584451.000000,149815159.000000
115488959.000000,149804253.000000
115394437.000000,149788775.000000
115301040.000000,149768814.000000
115208922.000000,149744459.000000
115118238.000000,149715799.000000
115029140.000000,149682923.000000
114941785.000000,149645920.000000
114856325.000000,149604879.000000
114772916.000000,149559889.000000
114691711.000000,149511039.000000
114612864.000000,149458418.000000
114536531.000000,149402116.000000
114462864.000000,149342221.000000
114392019.000000,149278822.000000
114324149.000000,149212008.000000
114259409.000000,149141870.000000
114197953.000000,149068494.000000
114139935.000000,148991971.000000
114085509.000000,148912390.000000
114034830.000000,148829840.000000
113988052.000000,148744409.000000
113945329.000000,148656187.000000
113906815.000000,148565262.000000
113872665.000000,148471725.000000
113843032.000000,148375663.000000
113834830.000000,148375663.000000
113834796.000000,148375665.000000
113834780.000000,148375667.000000
113834763.000000,148375669.000000
113834748.000000,148375673.000000
113834732.000000,148375676.000000
113834702.000000,148375686.000000
113834688.000000,148375692.000000
113834674.000000,148375699.000000
113834648.000000,148375713.000000
113834636.000000,148375722.000000
113834624.000000,148375730.000000
113834612.000000,148375739.000000
113834602.000000,148375749.000000
113834591.000000,148375759.000000
113834582.000000,148375770.000000
113834572.000000,148375781.000000
113834564.000000,148375792.000000
113834556.000000,148375804.000000
113834549.000000,148375816.000000
113834542.000000,148375829.000000
113834530.000000,148375855.000000
113834526.000000,148375868.000000
113834518.000000,148375896.000000
113834516.000000,148375910.000000
113834514.000000,148375925.000000
113834513.000000,148375939.000000
113834512.000000,148375954.000000
113834512.000000,150896110.000000
113497777.000000,150896110.000000
113497777.000000,148375954.000000
113498133.000000,148360358.000000
113499188.000000,148344943.000000
113500928.000000,148329725.000000
113503337.000000,148314719.000000
113506401.000000,148299940.000000
113510102.000000,148285405.000000
113514426.000000,148271127.000000
113519358.000000,148257124.000000
113524882.000000,148243410.000000
113530982.000000,148230001.000000
113537644.000000,148216912.000000
113544851.000000,148204159.000000
113552588.000000,148191757.000000
113560840.000000,148179722.000000
113569591.000000,148168069.000000
113578826.000000,148156813.000000
113588529.000000,148145970.000000
113598685.000000,148135556.000000
113609279.000000,148125586.000000
113620294.000000,148116075.000000
113631716.000000,148107039.000000
113643529.000000,148098493.000000
113655718.000000,148090453.000000
113668267.000000,148082934.000000
113681161.000000,148075952.000000
113694384.000000,148069521.000000
113707921.000000,148063659.000000
113721756.000000,148058379.000000
113735874.000000,148053698.000000
113750259.000000,148049631.000000
113764897.000000,148046193.000000
113779771.000000,148043400.000000
113773760.000000,147972135.000000
113770347.000000,147900967.000000
113769503.000000,147829959.000000
113769513.000000,147829546.000000
114086966.000000,147829546.000000
114089510.000000,147934089.000000
114098726.000000,148038928.000000
114102469.000000,148067951.000000
114106735.000000,148096971.000000
114111528.000000,148125983.000000
114116849.000000,148154978.000000
114122701.000000,148183949.000000
114129086.000000,148212889.000000
114136007.000000,148241792.000000
114143466.000000,148270650.000000
114150818.000000,148297231.000000
114158584.000000,148323593.000000
114166762.000000,148349737.000000
114175349.000000,148375663.000000
114203253.000000,148451521.000000
114234579.000000,148525326.000000
114269209.000000,148597009.000000
114307028.000000,148666503.000000
114347917.000000,148733741.000000
114391759.000000,148798655.000000
114438438.000000,148861177.000000
114487837.000000,148921240.000000
114539838.000000,148978777.000000
114594325.000000,149033719.000000
114651180.000000,149085999.000000
114710287.000000,149135550.000000
114771528.000000,149182304.000000
114834786.000000,149226194.000000
114899944.000000,149267151.000000
114966886.000000,149305108.000000
115035494.000000,149339998.000000
115105651.000000,149371753.000000
115177240.000000,149400306.000000
115250144.000000,149425589.000000
115324246.000000,149447534.000000
115399429.000000,149466073.000000
115475576.000000,149481140.000000
115552570.000000,149492667.000000
115630294.000000,149500585.000000
115708631.000000,149504828.000000
115787463.000000,149505328.000000
115866674.000000,149502018.000000
115946147.000000,149494829.000000
116025764.000000,149483694.000000
116105409.000000,149468546.000000
116184964.000000,149449316.000000
116285936.000000,149418794.000000
116383852.000000,149382292.000000
116478530.000000,149340048.000000
116569786.000000,149292296.000000
116657436.000000,149239273.000000
116741299.000000,149181215.000000
116821191.000000,149118359.000000
116896928.000000,149050939.000000
116968328.000000,148979194.000000
117035208.000000,148903358.000000
117097384.000000,148823667.000000
117154673.000000,148740358.000000
117206892.000000,148653667.000000
117253858.000000,148563831.000000
117295388.000000,148471084.000000
117331298.000000,148375663.000000
117341435.000000,148345053.000000
117350987.000000,148314207.000000
117359948.000000,148283133.000000
117368314.000000,148251838.000000
117376079.000000,148220330.000000
117383239.000000,148188616.000000
117389789.000000,148156704.000000
117395724.000000,148124600.000000
117367099.000000,148135986.000000
117338298.000000,148146926.000000
117309326.000000,148157418.000000
117280187.000000,148167459.000000
117250887.000000,148177048.000000
117221431.000000,148186181.000000
117191824.000000,148194858.000000
117162071.000000,148203075.000000
117068469.000000,148225727.000000
116974762.000000,148243627.000000
116881083.000000,148256854.000000
116787569.000000,148265485.000000
116694352.000000,148269599.000000
116601569.000000,148269273.000000
116509354.000000,148264584.000000
116417841.000000,148255612.000000
116327166.000000,148242432.000000
116237463.000000,148225124.000000
116148867.000000,148203765.000000
116061513.000000,148178433.000000
115975535.000000,148149206.000000
115891068.000000,148116160.000000
115808248.000000,148079375.000000
115727208.000000,148038928.000000
115639790.000000,147990000.000000
115554900.000000,147936791.000000
115472720.000000,147879406.000000
115393435.000000,147817951.000000
115317225.000000,147752529.000000
115244274.000000,147683248.000000
115174764.000000,147610213.000000
115108878.000000,147533528.000000
115046798.000000,147453299.000000
114988707.000000,147369631.000000
114934788.000000,147282630.000000
114885222.000000,147192401.000000
114840193.000000,147099050.000000
114799882.000000,147002681.000000
114764473.000000,146903400.000000
114734149.000000,146801313.000000
114726396.000000,146771443.000000
114719113.000000,146741468.000000
114712300.000000,146711393.000000
114705957.000000,146681225.000000
114700086.000000,146650971.000000
114694687.000000,146620636.000000
114689760.000000,146590226.000000
114685306.000000,146559748.000000
114606927.000000,146629631.000000
114533556.000000,146703879.000000
114465311.000000,146782202.000000
114402312.000000,146864309.000000
114344677.000000,146949910.000000
114292526.000000,147038713.000000
114245976.000000,147130429.000000
114205147.000000,147224765.000000
114170158.000000,147321432.000000
114141127.000000,147420139.000000
114118174.000000,147520594.000000
114101417.000000,147622508.000000
114090974.000000,147725589.000000
114086966.000000,147829546.000000
113769513.000000,147829546.000000
113771204.000000,147759176.000000
113775422.000000,147688682.000000
113782131.000000,147618543.000000
113791306.000000,147548822.000000
113802919.000000,147479584.000000
113816944.000000,147410893.000000
113833356.000000,147342815.000000
113852127.000000,147275412.000000
113873232.000000,147208751.000000
113896643.000000,147142895.000000
113922335.000000,147077908.000000
113950282.000000,147013856.000000
113980457.000000,146950803.000000
114012833.000000,146888812.000000
114047385.000000,146827950.000000
114084086.000000,146768279.000000
114122909.000000,146709865.000000
114163829.000000,146652773.000000
114206820.000000,146597065.000000
114251853.000000,146542808.000000
114298905.000000,146490066.000000
114347947.000000,146438902.000000
114398955.000000,146389382.000000
114451900.000000,146341569.000000
114506758.000000,146295529.000000
114563502.000000,146251326.000000
114622105.000000,146209024.000000
114682541.000000,146168688.000000
114744784.000000,146130383.000000
114754175.000000,146125259.000000
114763809.000000,146120811.000000
114773651.000000,146117039.000000
114783669.000000,146113945.000000
114793827.000000,146111527.000000
114804090.000000,146109786.000000
114814426.000000,146108722.000000
114824798.000000,146108336.000000
114835173.000000,146108628.000000
114845517.000000,146109598.000000
114855794.000000,146111246.000000
114865971.000000,146113573.000000
114876014.000000,146116578.000000
114885887.000000,146120262.000000
114895557.000000,146124626.000000
114904990.000000,146129668.000000
114914062.000000,146135333.000000
114922665.000000,146141543.000000
114930781.000000,146148268.000000
114938393.000000,146155478.000000
114945485.000000,146163143.000000
114952038.000000,146171233.000000
114958036.000000,146179718.000000
114963463.000000,146188568.000000
114968300.000000,146197753.000000
114972531.000000,146207244.000000
114976139.000000,146217010.000000
114979106.000000,146227021.000000
114981416.000000,146237247.000000
114983052.000000,146247659.000000
114983996.000000,146258226.000000
114984232.000000,146268919.000000
114984543.000000,146325869.000000
114986799.000000,146382726.000000
114990995.000000,146439440.000000
114997125.000000,146495961.000000
115005181.000000,146552240.000000
115015159.000000,146608228.000000
115027052.000000,146663876.000000
115040853.000000,146719133.000000
115064996.000000,146800802.000000
115093015.000000,146880338.000000
115124777.000000,146957666.000000
115160151.000000,147032710.000000
115199004.000000,147105392.000000
115241204.000000,147175638.000000
115286619.000000,147243369.000000
115335116.000000,147308511.000000
115386564.000000,147370986.000000
115440830.000000,147430719.000000
115497781.000000,147487632.000000
115557285.000000,147541651.000000
115619211.000000,147592697.000000
115683426.000000,147640695.000000
115749797.000000,147685569.000000
115818193.000000,147727242.000000
115888481.000000,147765638.000000
115960528.000000,147800680.000000
116034204.000000,147832293.000000
116109374.000000,147860399.000000
116185908.000000,147884923.000000
116263673.000000,147905788.000000
116342536.000000,147922917.000000
116422366.000000,147936235.000000
116503029.000000,147945665.000000
116584395.000000,147951130.000000
116666329.000000,147952555.000000
116748702.000000,147949863.000000
116831379.000000,147942978.000000
116914229.000000,147931822.000000
116997119.000000,147916321.000000
117079918.000000,147896397.000000
117134663.000000,147880714.000000
117188794.000000,147863184.000000
117242265.000000,147843828.000000
117295031.000000,147822664.000000
117347044.000000,147799712.000000
117398261.000000,147774990.000000
117448634.000000,147748519.000000
117498118.000000,147720317.000000
117507494.000000,147715173.000000
117517117.000000,147710706.000000
117526951.000000,147706916.000000
117536961.000000,147703803.000000
117547114.000000,147701368.000000
117557375.000000,147699609.000000
117567709.000000,147698528.000000
117578082.000000,147698125.000000
117588459.000000,147698399.000000
117598806.000000,147699352.000000
117609088.000000,147700982.000000
117619272.000000,147703291.000000
117629321.000000,147706278.000000
117639202.000000,147709944.000000
117648881.000000,147714288.000000
117658323.000000,147719311.000000
117667405.000000,147724957.000000
117676019.000000,147731149.000000
117684147.000000,147737857.000000
117691771.000000,147745052.000000
117698875.000000,147752702.000000
117705442.000000,147760779.000000
117711454.000000,147769252.000000
117716895.000000,147778092.000000
117721748.000000,147787268.000000
117725994.000000,147796750.000000
117729619.000000,147806509.000000
117732603.000000,147816515.000000
117734931.000000,147826737.000000
117736585.000000,147837146.000000
117737549.000000,147847711.000000
117737804.000000,147858403.000000
117737413.000000,147883120.000000
117736715.000000,147907781.000000
117735713.000000,147932382.000000
117734408.000000,147956920.000000
117732801.000000,147981395.000000
117730895.000000,148005802.000000
117728690.000000,148030140.000000
117726188.000000,148054406.000000
117751353.000000,148063451.000000
117775549.000000,148074391.000000
117798687.000000,148087137.000000
117820677.000000,148101597.000000
117841427.000000,148117682.000000
117849053.000000,148124600.000000
117860847.000000,148135301.000000
117878847.000000,148154363.000000
117895337.000000,148174778.000000
117910225.000000,148196456.000000
117923422.000000,148219306.000000
117934836.000000,148243238.000000
117944378.000000,148268160.000000
117951957.000000,148293984.000000
117957483.000000,148320618.000000
117959447.000000,148334210.000000
117960865.000000,148347971.000000
117961723.000000,148361890.000000
117962012.000000,148375954.000000
117962012.000000,150896110.000000
117961573.000000,150913444.000000
Z" /> 
</g>
<g style="fill:#000000; fill-opacity:1.0; 
stroke:#000000; stroke-width:120000.000000; stroke-opacity:1; 
stroke-linecap:round; stroke-linejoin:round;">
</g>
<g style="fill:#000000; fill-opacity:0.0; 
stroke:#000000; stroke-width:120000.000000; stroke-opacity:1; 
stroke-linecap:round; stroke-linejoin:round;">
<path d="M156108000 130250000
L153733000 130250000
" />
<path d="M145583000 136450000
L156108000 136450000
" />
<path d="M156108000 135850000
L158108000 135850000
" />
<path d="M156108000 135850000
L156108000 136450000
" />
<path d="M152083000 130250000
L150733000 130250000
" />
<path d="M156108000 130250000
L156108000 130850000
" />
<path d="M144008000 136450000
L144008000 130250000
" />
<path d="M145133000 130250000
L144008000 130250000
" />
<path d="M156108000 130850000
L158108000 130850000
" />
<path d="M149083000 130250000
L146683000 130250000
" />
<path d="M146683000 130250000
L146683000 128850000
" />
<path d="M145133000 130250000
L145133000 128850000
" />
<path d="M158108000 130850000
L158108000 135850000
" />
<g >
</g>
<g >
</g>
<g >
</g>
<g >
</g>
<g >
</g>
<g >
</g>
<g >
</g>
<g >
</g>
<g >
</g>
<g >
</g>
<g >
</g>
<g >
</g>
<g >
</g>
<g >
</g>
<g >
</g>
<g >
</g>
<g >
</g>
<g >
</g>
<g >
</g>
<g >
</g>
<g >
</g>
<g >
</g>
<g >
</g>
<g >
</g>
<g >
</g>
<g >
</g>
<g >
</g>
<g >
</g>
<g >
</g>
<g >
</g>
<g >
</g>
<g >
</g>
<g >
</g>
<g >
</g>
<g >
</g>
<g >
</g>
<g >
</g>
<g >
</g>
<g >
</g>
</g> 
</svg>
