<?xml version="1.0" standalone="no"?>
 <!DOCTYPE svg PUBLIC "-//W3C//DTD SVG 1.1//EN" 
 "http://www.w3.org/Graphics/SVG/1.1/DTD/svg11.dtd"> 
<svg
  xmlns:svg="http://www.w3.org/2000/svg"
  xmlns="http://www.w3.org/2000/svg"
  xmlns:xlink="http://www.w3.org/1999/xlink"
  version="1.1"
  width="29.700220cm" height="21.000720cm" viewBox="0 0 297002200 210007200">
<title>SVG Picture created as moonkey-F_Silkscreen.svg date 2022/12/12 17:36:15 </title>
  <desc>Picture generated by PCBNEW </desc>
<g style="fill:#000000; fill-opacity:1.000000;stroke:#000000; stroke-opacity:1.000000;
stroke-linecap:round; stroke-linejoin:round;"
 transform="translate(0 0) scale(1 1)">
</g>
<g style="fill:#000000; fill-opacity:0.0; 
stroke:#000000; stroke-width:0.000000; stroke-opacity:1; 
stroke-linecap:round; stroke-linejoin:round;">
</g>
<g style="fill:#000000; fill-opacity:0.0; 
stroke:#000000; stroke-width:1.000000; stroke-opacity:1; 
stroke-linecap:round; stroke-linejoin:round;">
</g>
<g style="fill:#000000; fill-opacity:1.0; 
stroke:#000000; stroke-width:1.000000; stroke-opacity:1; 
stroke-linecap:round; stroke-linejoin:round;">
<path style="fill:#000000; fill-opacity:1.0; 
stroke:#000000; stroke-width:1.000000; stroke-opacity:1; 
stroke-linecap:round; stroke-linejoin:round;fill-rule:evenodd;"
d="M 114468047.000000,149980197.000000
114476106.000000,149980811.000000
114484047.000000,149981821.000000
114491862.000000,149983218.000000
114499541.000000,149984993.000000
114507072.000000,149987133.000000
114514447.000000,149989631.000000
114521655.000000,149992476.000000
114528687.000000,149995657.000000
114535531.000000,149999165.000000
114542179.000000,150002990.000000
114548621.000000,150007121.000000
114554845.000000,150011549.000000
114560843.000000,150016264.000000
114566604.000000,150021256.000000
114572118.000000,150026514.000000
114577376.000000,150032029.000000
114582366.000000,150037790.000000
114587081.000000,150043788.000000
114591508.000000,150050013.000000
114595638.000000,150056454.000000
114599462.000000,150063102.000000
114602970.000000,150069947.000000
114606150.000000,150076978.000000
114608994.000000,150084185.000000
114611491.000000,150091560.000000
114613631.000000,150099090.000000
114615405.000000,150106767.000000
114616801.000000,150114581.000000
114617812.000000,150122521.000000
114618425.000000,150130577.000000
114618632.000000,150138740.000000
114618425.000000,150146906.000000
114617812.000000,150154964.000000
114616801.000000,150162906.000000
114615405.000000,150170721.000000
114613631.000000,150178399.000000
114611491.000000,150185931.000000
114608994.000000,150193306.000000
114606150.000000,150200514.000000
114602970.000000,150207545.000000
114599462.000000,150214390.000000
114595638.000000,150221038.000000
114591508.000000,150227479.000000
114587081.000000,150233704.000000
114582366.000000,150239701.000000
114577376.000000,150245462.000000
114572118.000000,150250977.000000
114566604.000000,150256234.000000
114560843.000000,150261225.000000
114554845.000000,150265939.000000
114548621.000000,150270366.000000
114542179.000000,150274497.000000
114535531.000000,150278321.000000
114528687.000000,150281828.000000
114521655.000000,150285009.000000
114514447.000000,150287852.000000
114507072.000000,150290349.000000
114499541.000000,150292490.000000
114491862.000000,150294263.000000
114484047.000000,150295660.000000
114476106.000000,150296670.000000
114468047.000000,150297283.000000
114459882.000000,150297490.000000
114301132.000000,150297490.000000
114292969.000000,150297283.000000
114284912.000000,150296670.000000
114276972.000000,150295660.000000
114269159.000000,150294263.000000
114261482.000000,150292490.000000
114253951.000000,150290349.000000
114246577.000000,150287852.000000
114239370.000000,150285009.000000
114232339.000000,150281828.000000
114225494.000000,150278321.000000
114218846.000000,150274497.000000
114212405.000000,150270366.000000
114206180.000000,150265939.000000
114200182.000000,150261225.000000
114194421.000000,150256234.000000
114188906.000000,150250977.000000
114183647.000000,150245462.000000
114178656.000000,150239701.000000
114173941.000000,150233704.000000
114169513.000000,150227479.000000
114165381.000000,150221038.000000
114161557.000000,150214390.000000
114158049.000000,150207545.000000
114154867.000000,150200514.000000
114152023.000000,150193306.000000
114149525.000000,150185931.000000
114147384.000000,150178399.000000
114145610.000000,150170721.000000
114144213.000000,150162906.000000
114143202.000000,150154964.000000
114142589.000000,150146906.000000
114142382.000000,150138740.000000
114142589.000000,150130577.000000
114143202.000000,150122521.000000
114144213.000000,150114581.000000
114145610.000000,150106767.000000
114147384.000000,150099090.000000
114149525.000000,150091560.000000
114152023.000000,150084185.000000
114154867.000000,150076978.000000
114158049.000000,150069947.000000
114161557.000000,150063102.000000
114165381.000000,150056454.000000
114169513.000000,150050013.000000
114173941.000000,150043788.000000
114178656.000000,150037790.000000
114183647.000000,150032029.000000
114188906.000000,150026514.000000
114194421.000000,150021256.000000
114200182.000000,150016264.000000
114206180.000000,150011549.000000
114212405.000000,150007121.000000
114218846.000000,150002990.000000
114225494.000000,149999165.000000
114232339.000000,149995657.000000
114239370.000000,149992476.000000
114246577.000000,149989631.000000
114253951.000000,149987133.000000
114261482.000000,149984993.000000
114269159.000000,149983218.000000
114276972.000000,149981821.000000
114284912.000000,149980811.000000
114292969.000000,149980197.000000
114301132.000000,149979990.000000
114459882.000000,149979990.000000
Z" /> 
<path style="fill:#000000; fill-opacity:1.0; 
stroke:#000000; stroke-width:1.000000; stroke-opacity:1; 
stroke-linecap:round; stroke-linejoin:round;fill-rule:evenodd;"
d="M 117166797.000000,149980197.000000
117174855.000000,149980811.000000
117182797.000000,149981821.000000
117190612.000000,149983218.000000
117198291.000000,149984993.000000
117205822.000000,149987133.000000
117213197.000000,149989631.000000
117220405.000000,149992476.000000
117227437.000000,149995657.000000
117234281.000000,149999165.000000
117240929.000000,150002990.000000
117247371.000000,150007121.000000
117253595.000000,150011549.000000
117259593.000000,150016264.000000
117265354.000000,150021256.000000
117270868.000000,150026514.000000
117276126.000000,150032029.000000
117281116.000000,150037790.000000
117285831.000000,150043788.000000
117290258.000000,150050013.000000
117294389.000000,150056454.000000
117298212.000000,150063102.000000
117301720.000000,150069947.000000
117304900.000000,150076978.000000
117307744.000000,150084185.000000
117310241.000000,150091560.000000
117312381.000000,150099090.000000
117314155.000000,150106767.000000
117315551.000000,150114581.000000
117316562.000000,150122521.000000
117317175.000000,150130577.000000
117317382.000000,150138740.000000
117317175.000000,150146906.000000
117316562.000000,150154964.000000
117315551.000000,150162906.000000
117314155.000000,150170721.000000
117312381.000000,150178399.000000
117310241.000000,150185931.000000
117307744.000000,150193306.000000
117304900.000000,150200514.000000
117301720.000000,150207545.000000
117298212.000000,150214390.000000
117294389.000000,150221038.000000
117290258.000000,150227479.000000
117285831.000000,150233704.000000
117281116.000000,150239701.000000
117276126.000000,150245462.000000
117270868.000000,150250977.000000
117265354.000000,150256234.000000
117259593.000000,150261225.000000
117253595.000000,150265939.000000
117247371.000000,150270366.000000
117240929.000000,150274497.000000
117234281.000000,150278321.000000
117227437.000000,150281828.000000
117220405.000000,150285009.000000
117213197.000000,150287852.000000
117205822.000000,150290349.000000
117198291.000000,150292490.000000
117190612.000000,150294263.000000
117182797.000000,150295660.000000
117174855.000000,150296670.000000
117166797.000000,150297283.000000
117158632.000000,150297490.000000
116999881.000000,150297490.000000
116991719.000000,150297283.000000
116983662.000000,150296670.000000
116975722.000000,150295660.000000
116967909.000000,150294263.000000
116960232.000000,150292490.000000
116952701.000000,150290349.000000
116945327.000000,150287852.000000
116938119.000000,150285009.000000
116931088.000000,150281828.000000
116924244.000000,150278321.000000
116917596.000000,150274497.000000
116911155.000000,150270366.000000
116904930.000000,150265939.000000
116898932.000000,150261225.000000
116893170.000000,150256234.000000
116887656.000000,150250977.000000
116882397.000000,150245462.000000
116877406.000000,150239701.000000
116872691.000000,150233704.000000
116868263.000000,150227479.000000
116864131.000000,150221038.000000
116860306.000000,150214390.000000
116856798.000000,150207545.000000
116853617.000000,150200514.000000
116850773.000000,150193306.000000
116848275.000000,150185931.000000
116846134.000000,150178399.000000
116844360.000000,150170721.000000
116842963.000000,150162906.000000
116841952.000000,150154964.000000
116841338.000000,150146906.000000
116841132.000000,150138740.000000
116841338.000000,150130577.000000
116841952.000000,150122521.000000
116842963.000000,150114581.000000
116844360.000000,150106767.000000
116846134.000000,150099090.000000
116848275.000000,150091560.000000
116850773.000000,150084185.000000
116853617.000000,150076978.000000
116856798.000000,150069947.000000
116860306.000000,150063102.000000
116864131.000000,150056454.000000
116868263.000000,150050013.000000
116872691.000000,150043788.000000
116877406.000000,150037790.000000
116882397.000000,150032029.000000
116887656.000000,150026514.000000
116893170.000000,150021256.000000
116898932.000000,150016264.000000
116904930.000000,150011549.000000
116911155.000000,150007121.000000
116917596.000000,150002990.000000
116924244.000000,149999165.000000
116931088.000000,149995657.000000
116938119.000000,149992476.000000
116945327.000000,149989631.000000
116952701.000000,149987133.000000
116960232.000000,149984993.000000
116967909.000000,149983218.000000
116975722.000000,149981821.000000
116983662.000000,149980811.000000
116991719.000000,149980197.000000
116999881.000000,149979990.000000
117158632.000000,149979990.000000
Z" /> 
<path style="fill:#000000; fill-opacity:1.0; 
stroke:#000000; stroke-width:1.000000; stroke-opacity:1; 
stroke-linecap:round; stroke-linejoin:round;fill-rule:evenodd;"
d="M 116373047.000000,150244781.000000
116381105.000000,150245394.000000
116389047.000000,150246405.000000
116396862.000000,150247802.000000
116404541.000000,150249576.000000
116412072.000000,150251717.000000
116419447.000000,150254215.000000
116426655.000000,150257059.000000
116433687.000000,150260240.000000
116440531.000000,150263748.000000
116447179.000000,150267573.000000
116453620.000000,150271705.000000
116459845.000000,150276133.000000
116465843.000000,150280848.000000
116471604.000000,150285839.000000
116477118.000000,150291097.000000
116482375.000000,150296612.000000
116487366.000000,150302374.000000
116492080.000000,150308372.000000
116496508.000000,150314596.000000
116500638.000000,150321038.000000
116504462.000000,150327686.000000
116507969.000000,150334530.000000
116511150.000000,150341561.000000
116513994.000000,150348769.000000
116516491.000000,150356143.000000
116518631.000000,150363673.000000
116520404.000000,150371350.000000
116521801.000000,150379164.000000
116522811.000000,150387104.000000
116523425.000000,150395161.000000
116523632.000000,150403324.000000
116523425.000000,150411489.000000
116522811.000000,150419548.000000
116521801.000000,150427489.000000
116520404.000000,150435304.000000
116518631.000000,150442983.000000
116516491.000000,150450514.000000
116513994.000000,150457889.000000
116511150.000000,150465097.000000
116507969.000000,150472129.000000
116504462.000000,150478974.000000
116500638.000000,150485621.000000
116496508.000000,150492063.000000
116492080.000000,150498287.000000
116487366.000000,150504285.000000
116482375.000000,150510046.000000
116477118.000000,150515560.000000
116471604.000000,150520818.000000
116465843.000000,150525808.000000
116459845.000000,150530523.000000
116453620.000000,150534950.000000
116447179.000000,150539081.000000
116440531.000000,150542904.000000
116433687.000000,150546412.000000
116426655.000000,150549592.000000
116419447.000000,150552436.000000
116412072.000000,150554933.000000
116404541.000000,150557073.000000
116396862.000000,150558847.000000
116389047.000000,150560244.000000
116381105.000000,150561254.000000
116373047.000000,150561867.000000
116364882.000000,150562074.000000
115094882.000000,150562074.000000
115086719.000000,150561867.000000
115078662.000000,150561254.000000
115070722.000000,150560244.000000
115062909.000000,150558847.000000
115055232.000000,150557073.000000
115047701.000000,150554933.000000
115040327.000000,150552436.000000
115033120.000000,150549592.000000
115026089.000000,150546412.000000
115019244.000000,150542904.000000
115012596.000000,150539081.000000
115006155.000000,150534950.000000
114999930.000000,150530523.000000
114993932.000000,150525808.000000
114988170.000000,150520818.000000
114982656.000000,150515560.000000
114977397.000000,150510046.000000
114972406.000000,150504285.000000
114967691.000000,150498287.000000
114963263.000000,150492063.000000
114959131.000000,150485621.000000
114955306.000000,150478974.000000
114951798.000000,150472129.000000
114948617.000000,150465097.000000
114945773.000000,150457889.000000
114943275.000000,150450514.000000
114941134.000000,150442983.000000
114939360.000000,150435304.000000
114937963.000000,150427489.000000
114936952.000000,150419548.000000
114936338.000000,150411489.000000
114936132.000000,150403324.000000
114936338.000000,150395161.000000
114936952.000000,150387104.000000
114937963.000000,150379164.000000
114939360.000000,150371350.000000
114941134.000000,150363673.000000
114943275.000000,150356143.000000
114945773.000000,150348769.000000
114948617.000000,150341561.000000
114951798.000000,150334530.000000
114955306.000000,150327686.000000
114959131.000000,150321038.000000
114963263.000000,150314596.000000
114967691.000000,150308372.000000
114972406.000000,150302374.000000
114977397.000000,150296612.000000
114982656.000000,150291097.000000
114988170.000000,150285839.000000
114993932.000000,150280848.000000
114999930.000000,150276133.000000
115006155.000000,150271705.000000
115012596.000000,150267573.000000
115019244.000000,150263748.000000
115026089.000000,150260240.000000
115033120.000000,150257059.000000
115040327.000000,150254215.000000
115047701.000000,150251717.000000
115055232.000000,150249576.000000
115062909.000000,150247802.000000
115070722.000000,150246405.000000
115078662.000000,150245394.000000
115086719.000000,150244781.000000
115094882.000000,150244574.000000
116364882.000000,150244574.000000
Z" /> 
<path style="fill:#000000; fill-opacity:1.0; 
stroke:#000000; stroke-width:1.000000; stroke-opacity:1; 
stroke-linecap:round; stroke-linejoin:round;fill-rule:evenodd;"
d="M 113498067.000000,148361890.000000
113498925.000000,148347971.000000
113500343.000000,148334210.000000
113502307.000000,148320618.000000
113507833.000000,148293984.000000
113515412.000000,148268160.000000
113524954.000000,148243238.000000
113536368.000000,148219306.000000
113549565.000000,148196456.000000
113564453.000000,148174778.000000
113580943.000000,148154363.000000
113598943.000000,148135301.000000
113610737.000000,148124600.000000
114064066.000000,148124600.000000
114070001.000000,148156704.000000
114076551.000000,148188616.000000
114083711.000000,148220330.000000
114091476.000000,148251838.000000
114099842.000000,148283133.000000
114108803.000000,148314207.000000
114118355.000000,148345053.000000
114128492.000000,148375663.000000
114164402.000000,148471084.000000
114205932.000000,148563831.000000
114252898.000000,148653667.000000
114305117.000000,148740358.000000
114362406.000000,148823667.000000
114424582.000000,148903358.000000
114491462.000000,148979194.000000
114562862.000000,149050939.000000
114638599.000000,149118359.000000
114718491.000000,149181215.000000
114802354.000000,149239273.000000
114890004.000000,149292296.000000
114981260.000000,149340048.000000
115075938.000000,149382292.000000
115173854.000000,149418794.000000
115274826.000000,149449316.000000
115354381.000000,149468546.000000
115434026.000000,149483694.000000
115513643.000000,149494829.000000
115593116.000000,149502018.000000
115672327.000000,149505328.000000
115751159.000000,149504828.000000
115829496.000000,149500585.000000
115907220.000000,149492667.000000
115984214.000000,149481140.000000
116060361.000000,149466073.000000
116135544.000000,149447534.000000
116209646.000000,149425589.000000
116282550.000000,149400306.000000
116354139.000000,149371753.000000
116424296.000000,149339998.000000
116492904.000000,149305108.000000
116559846.000000,149267151.000000
116625004.000000,149226194.000000
116688262.000000,149182304.000000
116749503.000000,149135550.000000
116808610.000000,149085999.000000
116865465.000000,149033719.000000
116919952.000000,148978777.000000
116971953.000000,148921240.000000
117021352.000000,148861177.000000
117068031.000000,148798655.000000
117111873.000000,148733741.000000
117152762.000000,148666503.000000
117190581.000000,148597009.000000
117225211.000000,148525326.000000
117256537.000000,148451521.000000
117284441.000000,148375663.000000
117293028.000000,148349737.000000
117301206.000000,148323593.000000
117308972.000000,148297231.000000
117316324.000000,148270650.000000
117323783.000000,148241792.000000
117330704.000000,148212889.000000
117337089.000000,148183949.000000
117342941.000000,148154978.000000
117348262.000000,148125983.000000
117353055.000000,148096971.000000
117357321.000000,148067951.000000
117361064.000000,148038928.000000
117370280.000000,147934089.000000
117372824.000000,147829546.000000
117368816.000000,147725589.000000
117358373.000000,147622508.000000
117341616.000000,147520594.000000
117318663.000000,147420139.000000
117289632.000000,147321432.000000
117254643.000000,147224765.000000
117213814.000000,147130429.000000
117167264.000000,147038713.000000
117115113.000000,146949910.000000
117057478.000000,146864309.000000
116994479.000000,146782202.000000
116926234.000000,146703879.000000
116852863.000000,146629631.000000
116774484.000000,146559748.000000
116770030.000000,146590226.000000
116765103.000000,146620636.000000
116759704.000000,146650971.000000
116753833.000000,146681225.000000
116747490.000000,146711393.000000
116740677.000000,146741468.000000
116733394.000000,146771443.000000
116725641.000000,146801313.000000
116695317.000000,146903400.000000
116659908.000000,147002681.000000
116619597.000000,147099050.000000
116574568.000000,147192401.000000
116525002.000000,147282630.000000
116471083.000000,147369631.000000
116412992.000000,147453299.000000
116350912.000000,147533528.000000
116285026.000000,147610213.000000
116215516.000000,147683248.000000
116142565.000000,147752529.000000
116066355.000000,147817951.000000
115987070.000000,147879406.000000
115904890.000000,147936791.000000
115820000.000000,147990000.000000
115732582.000000,148038928.000000
115651542.000000,148079375.000000
115568722.000000,148116160.000000
115484255.000000,148149206.000000
115398277.000000,148178433.000000
115310923.000000,148203765.000000
115222327.000000,148225124.000000
115132624.000000,148242432.000000
115041949.000000,148255612.000000
114950436.000000,148264584.000000
114858221.000000,148269273.000000
114765438.000000,148269599.000000
114672221.000000,148265485.000000
114578707.000000,148256854.000000
114485028.000000,148243627.000000
114391321.000000,148225727.000000
114297719.000000,148203075.000000
114267966.000000,148194858.000000
114238359.000000,148186181.000000
114208903.000000,148177048.000000
114179603.000000,148167459.000000
114150464.000000,148157418.000000
114121492.000000,148146926.000000
114092691.000000,148135986.000000
114064066.000000,148124600.000000
113610737.000000,148124600.000000
113618363.000000,148117682.000000
113639113.000000,148101597.000000
113661103.000000,148087137.000000
113684241.000000,148074391.000000
113708437.000000,148063451.000000
113733602.000000,148054406.000000
113731100.000000,148030140.000000
113728895.000000,148005802.000000
113726989.000000,147981395.000000
113725382.000000,147956920.000000
113724077.000000,147932382.000000
113723075.000000,147907781.000000
113722377.000000,147883120.000000
113721986.000000,147858403.000000
113722241.000000,147847711.000000
113723205.000000,147837146.000000
113724859.000000,147826737.000000
113727187.000000,147816515.000000
113730171.000000,147806509.000000
113733796.000000,147796750.000000
113738042.000000,147787268.000000
113742895.000000,147778092.000000
113748336.000000,147769252.000000
113754348.000000,147760779.000000
113760915.000000,147752702.000000
113768019.000000,147745052.000000
113775643.000000,147737857.000000
113783771.000000,147731149.000000
113792385.000000,147724957.000000
113801467.000000,147719311.000000
113810909.000000,147714288.000000
113820588.000000,147709944.000000
113830469.000000,147706278.000000
113840518.000000,147703291.000000
113850702.000000,147700982.000000
113860984.000000,147699352.000000
113871331.000000,147698399.000000
113881708.000000,147698125.000000
113892081.000000,147698528.000000
113902415.000000,147699609.000000
113912676.000000,147701368.000000
113922829.000000,147703803.000000
113932839.000000,147706916.000000
113942673.000000,147710706.000000
113952296.000000,147715173.000000
113961672.000000,147720317.000000
114011156.000000,147748519.000000
114061529.000000,147774990.000000
114112746.000000,147799712.000000
114164759.000000,147822664.000000
114217525.000000,147843828.000000
114270996.000000,147863184.000000
114325127.000000,147880714.000000
114379872.000000,147896397.000000
114462671.000000,147916321.000000
114545561.000000,147931822.000000
114628411.000000,147942978.000000
114711088.000000,147949863.000000
114793461.000000,147952555.000000
114875395.000000,147951130.000000
114956761.000000,147945665.000000
115037424.000000,147936235.000000
115117254.000000,147922917.000000
115196117.000000,147905788.000000
115273882.000000,147884923.000000
115350416.000000,147860399.000000
115425586.000000,147832293.000000
115499262.000000,147800680.000000
115571309.000000,147765638.000000
115641597.000000,147727242.000000
115709993.000000,147685569.000000
115776364.000000,147640695.000000
115840579.000000,147592697.000000
115902505.000000,147541651.000000
115962009.000000,147487632.000000
116018960.000000,147430719.000000
116073226.000000,147370986.000000
116124674.000000,147308511.000000
116173171.000000,147243369.000000
116218586.000000,147175638.000000
116260786.000000,147105392.000000
116299639.000000,147032710.000000
116335013.000000,146957666.000000
116366775.000000,146880338.000000
116394794.000000,146800802.000000
116418937.000000,146719133.000000
116432738.000000,146663876.000000
116444631.000000,146608228.000000
116454609.000000,146552240.000000
116462665.000000,146495961.000000
116468795.000000,146439440.000000
116472991.000000,146382726.000000
116475247.000000,146325869.000000
116475558.000000,146268919.000000
116475794.000000,146258226.000000
116476738.000000,146247659.000000
116478374.000000,146237247.000000
116480684.000000,146227021.000000
116483651.000000,146217010.000000
116487259.000000,146207244.000000
116491490.000000,146197753.000000
116496327.000000,146188568.000000
116501754.000000,146179718.000000
116507752.000000,146171233.000000
116514305.000000,146163143.000000
116521397.000000,146155478.000000
116529009.000000,146148268.000000
116537125.000000,146141543.000000
116545728.000000,146135333.000000
116554800.000000,146129668.000000
116564233.000000,146124626.000000
116573903.000000,146120262.000000
116583776.000000,146116578.000000
116593819.000000,146113573.000000
116603996.000000,146111246.000000
116614273.000000,146109598.000000
116624617.000000,146108628.000000
116634992.000000,146108336.000000
116645364.000000,146108722.000000
116655700.000000,146109786.000000
116665963.000000,146111527.000000
116676121.000000,146113945.000000
116686139.000000,146117039.000000
116695981.000000,146120811.000000
116705615.000000,146125259.000000
116715006.000000,146130383.000000
116777249.000000,146168688.000000
116837685.000000,146209024.000000
116896288.000000,146251326.000000
116953032.000000,146295529.000000
117007890.000000,146341569.000000
117060835.000000,146389382.000000
117111843.000000,146438902.000000
117160885.000000,146490066.000000
117207937.000000,146542808.000000
117252970.000000,146597065.000000
117295961.000000,146652773.000000
117336881.000000,146709865.000000
117375704.000000,146768279.000000
117412405.000000,146827950.000000
117446957.000000,146888812.000000
117479333.000000,146950803.000000
117509508.000000,147013856.000000
117537455.000000,147077908.000000
117563147.000000,147142895.000000
117586558.000000,147208751.000000
117607663.000000,147275412.000000
117626434.000000,147342815.000000
117642846.000000,147410893.000000
117656871.000000,147479584.000000
117668484.000000,147548822.000000
117677659.000000,147618543.000000
117684368.000000,147688682.000000
117688586.000000,147759176.000000
117690287.000000,147829959.000000
117689443.000000,147900967.000000
117686030.000000,147972135.000000
117680019.000000,148043400.000000
117694893.000000,148046193.000000
117709531.000000,148049631.000000
117723916.000000,148053698.000000
117738034.000000,148058379.000000
117751869.000000,148063659.000000
117765406.000000,148069521.000000
117778629.000000,148075952.000000
117791523.000000,148082934.000000
117804072.000000,148090453.000000
117816261.000000,148098493.000000
117828074.000000,148107039.000000
117839496.000000,148116075.000000
117850511.000000,148125586.000000
117861105.000000,148135556.000000
117871261.000000,148145970.000000
117880964.000000,148156813.000000
117890199.000000,148168069.000000
117898950.000000,148179722.000000
117907202.000000,148191757.000000
117914939.000000,148204159.000000
117922146.000000,148216912.000000
117928808.000000,148230001.000000
117934908.000000,148243410.000000
117940432.000000,148257124.000000
117945364.000000,148271127.000000
117949688.000000,148285405.000000
117953389.000000,148299940.000000
117956453.000000,148314719.000000
117958862.000000,148329725.000000
117960602.000000,148344943.000000
117961657.000000,148360358.000000
117962013.000000,148375954.000000
117962013.000000,150896110.000000
117961574.000000,150913444.000000
117960271.000000,150930552.000000
117958126.000000,150947412.000000
117955160.000000,150964003.000000
117951394.000000,150980305.000000
117946849.000000,150996295.000000
117941547.000000,151011952.000000
117935508.000000,151027255.000000
117928755.000000,151042184.000000
117921308.000000,151056716.000000
117913188.000000,151070831.000000
117904417.000000,151084507.000000
117895017.000000,151097723.000000
117885007.000000,151110457.000000
117874410.000000,151122689.000000
117863247.000000,151134397.000000
117851539.000000,151145561.000000
117839307.000000,151156158.000000
117826572.000000,151166167.000000
117813356.000000,151175568.000000
117799680.000000,151184339.000000
117785566.000000,151192458.000000
117771033.000000,151199906.000000
117756105.000000,151206659.000000
117740801.000000,151212697.000000
117725144.000000,151218000.000000
117709154.000000,151222545.000000
117692853.000000,151226311.000000
117676262.000000,151229277.000000
117659401.000000,151231422.000000
117642294.000000,151232724.000000
117624960.000000,151233163.000000
113834804.000000,151233163.000000
113817472.000000,151232724.000000
113800367.000000,151231422.000000
113783509.000000,151229277.000000
113766919.000000,151226311.000000
113750620.000000,151222545.000000
113734632.000000,151218000.000000
113718976.000000,151212697.000000
113703674.000000,151206659.000000
113688747.000000,151199906.000000
113674216.000000,151192458.000000
113660103.000000,151184339.000000
113646428.000000,151175568.000000
113633213.000000,151166167.000000
113620479.000000,151156158.000000
113608248.000000,151145561.000000
113596540.000000,151134397.000000
113585378.000000,151122689.000000
113574781.000000,151110457.000000
113564772.000000,151097723.000000
113555372.000000,151084507.000000
113546601.000000,151070831.000000
113538482.000000,151056716.000000
113531035.000000,151042184.000000
113524282.000000,151027255.000000
113518244.000000,151011952.000000
113512941.000000,150996295.000000
113508397.000000,150980305.000000
113504631.000000,150964003.000000
113501664.000000,150947412.000000
113499519.000000,150930552.000000
113498217.000000,150913444.000000
113497778.000000,150896125.000000
113834513.000000,150896125.000000
113834514.000000,150896140.000000
113834516.000000,150896155.000000
113834519.000000,150896169.000000
113834522.000000,150896184.000000
113834526.000000,150896198.000000
113834531.000000,150896213.000000
113834536.000000,150896227.000000
113834542.000000,150896241.000000
113834548.000000,150896254.000000
113834556.000000,150896268.000000
113834563.000000,150896281.000000
113834571.000000,150896293.000000
113834589.000000,150896317.000000
113834599.000000,150896329.000000
113834609.000000,150896340.000000
113834631.000000,150896360.000000
113834642.000000,150896369.000000
113834654.000000,150896378.000000
113834666.000000,150896386.000000
113834679.000000,150896394.000000
113834691.000000,150896401.000000
113834705.000000,150896407.000000
113834718.000000,150896412.000000
113834732.000000,150896417.000000
113834746.000000,150896421.000000
113834760.000000,150896424.000000
113834774.000000,150896426.000000
113834789.000000,150896428.000000
117624977.000000,150896428.000000
117624994.000000,150896426.000000
117625010.000000,150896424.000000
117625027.000000,150896421.000000
117625042.000000,150896417.000000
117625058.000000,150896412.000000
117625073.000000,150896407.000000
117625088.000000,150896401.000000
117625102.000000,150896394.000000
117625116.000000,150896386.000000
117625129.000000,150896378.000000
117625142.000000,150896369.000000
117625154.000000,150896360.000000
117625178.000000,150896340.000000
117625188.000000,150896329.000000
117625199.000000,150896317.000000
117625208.000000,150896305.000000
117625218.000000,150896293.000000
117625226.000000,150896281.000000
117625234.000000,150896268.000000
117625241.000000,150896254.000000
117625248.000000,150896241.000000
117625260.000000,150896213.000000
117625264.000000,150896198.000000
117625268.000000,150896184.000000
117625272.000000,150896169.000000
117625274.000000,150896155.000000
117625276.000000,150896140.000000
117625278.000000,150896110.000000
117625278.000000,148375954.000000
117625277.000000,148375939.000000
117625276.000000,148375925.000000
117625274.000000,148375910.000000
117625272.000000,148375896.000000
117625264.000000,148375868.000000
117625260.000000,148375855.000000
117625248.000000,148375829.000000
117625241.000000,148375816.000000
117625234.000000,148375804.000000
117625226.000000,148375792.000000
117625218.000000,148375781.000000
117625208.000000,148375770.000000
117625199.000000,148375759.000000
117625188.000000,148375749.000000
117625178.000000,148375739.000000
117625166.000000,148375730.000000
117625154.000000,148375722.000000
117625142.000000,148375713.000000
117625116.000000,148375699.000000
117625102.000000,148375692.000000
117625088.000000,148375686.000000
117625058.000000,148375676.000000
117625042.000000,148375673.000000
117625027.000000,148375669.000000
117625010.000000,148375667.000000
117624994.000000,148375665.000000
117624960.000000,148375663.000000
117616758.000000,148375663.000000
117587125.000000,148471725.000000
117552975.000000,148565262.000000
117514461.000000,148656187.000000
117471738.000000,148744409.000000
117424960.000000,148829840.000000
117374281.000000,148912390.000000
117319855.000000,148991971.000000
117261837.000000,149068494.000000
117200381.000000,149141870.000000
117135641.000000,149212008.000000
117067771.000000,149278822.000000
116996926.000000,149342221.000000
116923259.000000,149402116.000000
116846926.000000,149458418.000000
116768079.000000,149511039.000000
116686874.000000,149559889.000000
116603465.000000,149604879.000000
116518005.000000,149645920.000000
116430650.000000,149682923.000000
116341552.000000,149715799.000000
116250868.000000,149744459.000000
116158750.000000,149768814.000000
116065353.000000,149788775.000000
115970831.000000,149804253.000000
115875339.000000,149815159.000000
115779031.000000,149821403.000000
115682060.000000,149822897.000000
115584581.000000,149819551.000000
115486749.000000,149811277.000000
115388718.000000,149797986.000000
115290641.000000,149779588.000000
115192673.000000,149755994.000000
115073679.000000,149720070.000000
114958248.000000,149677170.000000
114846590.000000,149627566.000000
114738916.000000,149571532.000000
114635439.000000,149509339.000000
114536368.000000,149441260.000000
114441916.000000,149367568.000000
114352293.000000,149288535.000000
114267711.000000,149204434.000000
114188381.000000,149115537.000000
114114513.000000,149022118.000000
114046320.000000,148924447.000000
113984012.000000,148822799.000000
113927801.000000,148717445.000000
113877898.000000,148608658.000000
113834513.000000,148496710.000000
113834513.000000,150896125.000000
113497778.000000,150896125.000000
113497778.000000,150896110.000000
113497778.000000,148375954.000000
Z" /> 
</g>
<g style="fill:#000000; fill-opacity:1.0; 
stroke:#000000; stroke-width:120000.000000; stroke-opacity:1; 
stroke-linecap:round; stroke-linejoin:round;">
</g>
<g style="fill:#000000; fill-opacity:0.0; 
stroke:#000000; stroke-width:120000.000000; stroke-opacity:1; 
stroke-linecap:round; stroke-linejoin:round;">
<path d="M101981000 149074000
L101981000 148424000
" />
<path d="M103101000 144184000
L100861000 144184000
" />
<path d="M100861000 144184000
L100861000 148424000
" />
<path d="M103101000 144904000
L100861000 144904000
" />
<path d="M101981000 143534000
L101981000 144184000
" />
<path d="M103101000 148424000
L103101000 144184000
" />
<path d="M103101000 144784000
L100861000 144784000
" />
<path d="M100861000 148424000
L103101000 148424000
" />
<path d="M103101000 145024000
L100861000 145024000
" />
<path d="M90701000 132754000
L90701000 136994000
" />
<path d="M90701000 136394000
L92941000 136394000
" />
<path d="M92941000 136994000
L92941000 132754000
" />
<path d="M90701000 136274000
L92941000 136274000
" />
<path d="M90701000 136994000
L92941000 136994000
" />
<path d="M91821000 137644000
L91821000 136994000
" />
<path d="M91821000 132104000
L91821000 132754000
" />
<path d="M90701000 136154000
L92941000 136154000
" />
<path d="M92941000 132754000
L90701000 132754000
" />
<path d="M98321000 148424000
L100561000 148424000
" />
<path d="M99441000 149074000
L99441000 148424000
" />
<path d="M100561000 145024000
L98321000 145024000
" />
<path d="M99441000 143534000
L99441000 144184000
" />
<path d="M100561000 144784000
L98321000 144784000
" />
<path d="M98321000 144184000
L98321000 148424000
" />
<path d="M100561000 148424000
L100561000 144184000
" />
<path d="M100561000 144904000
L98321000 144904000
" />
<path d="M100561000 144184000
L98321000 144184000
" />
<path d="M140652500 106997500
L140652500 93027500
" />
<path d="M154622500 106997500
L140652500 106997500
" />
<path d="M140652500 93027500
L154622500 93027500
" />
<path d="M154622500 93027500
L154622500 106997500
" />
<path d="M103401000 136394000
L105641000 136394000
" />
<path d="M105641000 132754000
L103401000 132754000
" />
<path d="M104521000 137644000
L104521000 136994000
" />
<path d="M103401000 136994000
L105641000 136994000
" />
<path d="M104521000 132104000
L104521000 132754000
" />
<path d="M103401000 136154000
L105641000 136154000
" />
<path d="M105641000 136994000
L105641000 132754000
" />
<path d="M103401000 132754000
L103401000 136994000
" />
<path d="M103401000 136274000
L105641000 136274000
" />
<path d="M135572500 126047500
L121602500 126047500
" />
<path d="M135572500 112077500
L135572500 126047500
" />
<path d="M121602500 112077500
L135572500 112077500
" />
<path d="M121602500 126047500
L121602500 112077500
" />
<path d="M62468750 133780000
L62468750 151780000
" />
<path d="M85968750 133780000
L62468750 133780000
" />
<path d="M85968750 151780000
L85968750 133780000
" />
<path d="M62468750 151780000
L85968750 151780000
" />
<path d="M83502500 73977500
L97472500 73977500
" />
<path d="M97472500 73977500
L97472500 87947500
" />
<path d="M97472500 87947500
L83502500 87947500
" />
<path d="M83502500 87947500
L83502500 73977500
" />
<path d="M135572500 140652500
L135572500 154622500
" />
<path d="M121602500 140652500
L135572500 140652500
" />
<path d="M121602500 154622500
L121602500 140652500
" />
<path d="M135572500 154622500
L121602500 154622500
" />
<path d="M95481000 148424000
L95481000 144184000
" />
<path d="M94361000 143534000
L94361000 144184000
" />
<path d="M95481000 144184000
L93241000 144184000
" />
<path d="M93241000 148424000
L95481000 148424000
" />
<path d="M93241000 144184000
L93241000 148424000
" />
<path d="M95481000 144784000
L93241000 144784000
" />
<path d="M94361000 149074000
L94361000 148424000
" />
<path d="M95481000 144904000
L93241000 144904000
" />
<path d="M95481000 145024000
L93241000 145024000
" />
<path d="M98321000 136154000
L100561000 136154000
" />
<path d="M100561000 136994000
L100561000 132754000
" />
<path d="M98321000 132754000
L98321000 136994000
" />
<path d="M98321000 136274000
L100561000 136274000
" />
<path d="M100561000 132754000
L98321000 132754000
" />
<path d="M99441000 132104000
L99441000 132754000
" />
<path d="M98321000 136394000
L100561000 136394000
" />
<path d="M99441000 137644000
L99441000 136994000
" />
<path d="M98321000 136994000
L100561000 136994000
" />
<path d="M88161000 136154000
L90401000 136154000
" />
<path d="M88161000 136994000
L90401000 136994000
" />
<path d="M88161000 136394000
L90401000 136394000
" />
<path d="M88161000 136274000
L90401000 136274000
" />
<path d="M89281000 137644000
L89281000 136994000
" />
<path d="M90401000 132754000
L88161000 132754000
" />
<path d="M88161000 132754000
L88161000 136994000
" />
<path d="M90401000 136994000
L90401000 132754000
" />
<path d="M89281000 132104000
L89281000 132754000
" />
<path d="M121602500 106997500
L121602500 93027500
" />
<path d="M135572500 93027500
L135572500 106997500
" />
<path d="M135572500 106997500
L121602500 106997500
" />
<path d="M121602500 93027500
L135572500 93027500
" />
<path d="M116522500 126047500
L102552500 126047500
" />
<path d="M102552500 126047500
L102552500 112077500
" />
<path d="M116522500 112077500
L116522500 126047500
" />
<path d="M102552500 112077500
L116522500 112077500
" />
<path d="M107061000 137644000
L107061000 136994000
" />
<path d="M105941000 136394000
L108181000 136394000
" />
<path d="M108181000 136994000
L108181000 132754000
" />
<path d="M108181000 132754000
L105941000 132754000
" />
<path d="M107061000 132104000
L107061000 132754000
" />
<path d="M105941000 136274000
L108181000 136274000
" />
<path d="M105941000 136154000
L108181000 136154000
" />
<path d="M105941000 132754000
L105941000 136994000
" />
<path d="M105941000 136994000
L108181000 136994000
" />
<path d="M108481000 136274000
L110721000 136274000
" />
<path d="M108481000 136394000
L110721000 136394000
" />
<path d="M110721000 136994000
L110721000 132754000
" />
<path d="M109601000 137644000
L109601000 136994000
" />
<path d="M108481000 132754000
L108481000 136994000
" />
<path d="M108481000 136994000
L110721000 136994000
" />
<path d="M110721000 132754000
L108481000 132754000
" />
<path d="M109601000 132104000
L109601000 132754000
" />
<path d="M108481000 136154000
L110721000 136154000
" />
<path d="M102552500 73977500
L116522500 73977500
" />
<path d="M116522500 87947500
L102552500 87947500
" />
<path d="M102552500 87947500
L102552500 73977500
" />
<path d="M116522500 73977500
L116522500 87947500
" />
<path d="M93241000 136994000
L95481000 136994000
" />
<path d="M95481000 136994000
L95481000 132754000
" />
<path d="M93241000 136394000
L95481000 136394000
" />
<path d="M93241000 136154000
L95481000 136154000
" />
<path d="M94361000 137644000
L94361000 136994000
" />
<path d="M93241000 132754000
L93241000 136994000
" />
<path d="M95481000 132754000
L93241000 132754000
" />
<path d="M94361000 132104000
L94361000 132754000
" />
<path d="M93241000 136274000
L95481000 136274000
" />
<path d="M83502500 106997500
L83502500 93027500
" />
<path d="M83502500 93027500
L97472500 93027500
" />
<path d="M97472500 106997500
L83502500 106997500
" />
<path d="M97472500 93027500
L97472500 106997500
" />
<path d="M64452500 128746250
L64452500 114776250
" />
<path d="M78422500 128746250
L64452500 128746250
" />
<path d="M64452500 114776250
L78422500 114776250
" />
<path d="M78422500 114776250
L78422500 128746250
" />
<path d="M104521000 143534000
L104521000 144184000
" />
<path d="M105641000 148424000
L105641000 144184000
" />
<path d="M105641000 144904000
L103401000 144904000
" />
<path d="M103401000 144184000
L103401000 148424000
" />
<path d="M105641000 145024000
L103401000 145024000
" />
<path d="M104521000 149074000
L104521000 148424000
" />
<path d="M105641000 144784000
L103401000 144784000
" />
<path d="M103401000 148424000
L105641000 148424000
" />
<path d="M105641000 144184000
L103401000 144184000
" />
<path d="M100861000 136274000
L103101000 136274000
" />
<path d="M101981000 137644000
L101981000 136994000
" />
<path d="M101981000 132104000
L101981000 132754000
" />
<path d="M100861000 136394000
L103101000 136394000
" />
<path d="M103101000 136994000
L103101000 132754000
" />
<path d="M100861000 136154000
L103101000 136154000
" />
<path d="M103101000 132754000
L100861000 132754000
" />
<path d="M100861000 132754000
L100861000 136994000
" />
<path d="M100861000 136994000
L103101000 136994000
" />
<path d="M97472500 126047500
L83502500 126047500
" />
<path d="M83502500 126047500
L83502500 112077500
" />
<path d="M97472500 112077500
L97472500 126047500
" />
<path d="M83502500 112077500
L97472500 112077500
" />
<path d="M96901000 137644000
L96901000 136994000
" />
<path d="M98021000 136994000
L98021000 132754000
" />
<path d="M95781000 136154000
L98021000 136154000
" />
<path d="M95781000 136274000
L98021000 136274000
" />
<path d="M95781000 132754000
L95781000 136994000
" />
<path d="M95781000 136394000
L98021000 136394000
" />
<path d="M95781000 136994000
L98021000 136994000
" />
<path d="M98021000 132754000
L95781000 132754000
" />
<path d="M96901000 132104000
L96901000 132754000
" />
<path d="M102552500 106997500
L102552500 93027500
" />
<path d="M102552500 93027500
L116522500 93027500
" />
<path d="M116522500 106997500
L102552500 106997500
" />
<path d="M116522500 93027500
L116522500 106997500
" />
<path d="M135572500 73977500
L135572500 87947500
" />
<path d="M121602500 73977500
L135572500 73977500
" />
<path d="M121602500 87947500
L121602500 73977500
" />
<path d="M135572500 87947500
L121602500 87947500
" />
<path d="M154622500 73977500
L154622500 87947500
" />
<path d="M140652500 73977500
L154622500 73977500
" />
<path d="M154622500 87947500
L140652500 87947500
" />
<path d="M140652500 87947500
L140652500 73977500
" />
<path d="M64452500 95726250
L78422500 95726250
" />
<path d="M78422500 95726250
L78422500 109696250
" />
<path d="M64452500 109696250
L64452500 95726250
" />
<path d="M78422500 109696250
L64452500 109696250
" />
<path d="M98021000 144784000
L95781000 144784000
" />
<path d="M96901000 149074000
L96901000 148424000
" />
<path d="M95781000 144184000
L95781000 148424000
" />
<path d="M96901000 143534000
L96901000 144184000
" />
<path d="M98021000 145024000
L95781000 145024000
" />
<path d="M98021000 148424000
L98021000 144184000
" />
<path d="M98021000 144184000
L95781000 144184000
" />
<path d="M98021000 144904000
L95781000 144904000
" />
<path d="M95781000 148424000
L98021000 148424000
" />
<path d="M64452500 90646250
L64452500 76676250
" />
<path d="M78422500 76676250
L78422500 90646250
" />
<path d="M64452500 76676250
L78422500 76676250
" />
<path d="M78422500 90646250
L64452500 90646250
" />
<path d="M90401000 144184000
L88161000 144184000
" />
<path d="M89281000 143534000
L89281000 144184000
" />
<path d="M88161000 148424000
L90401000 148424000
" />
<path d="M90401000 144904000
L88161000 144904000
" />
<path d="M90401000 148424000
L90401000 144184000
" />
<path d="M90401000 145024000
L88161000 145024000
" />
<path d="M89281000 149074000
L89281000 148424000
" />
<path d="M90401000 144784000
L88161000 144784000
" />
<path d="M88161000 144184000
L88161000 148424000
" />
<path d="M92941000 144904000
L90701000 144904000
" />
<path d="M92941000 145024000
L90701000 145024000
" />
<path d="M91821000 143534000
L91821000 144184000
" />
<path d="M91821000 149074000
L91821000 148424000
" />
<path d="M92941000 144784000
L90701000 144784000
" />
<path d="M90701000 148424000
L92941000 148424000
" />
<path d="M92941000 148424000
L92941000 144184000
" />
<path d="M92941000 144184000
L90701000 144184000
" />
<path d="M90701000 144184000
L90701000 148424000
" />
<path d="M140652500 140652500
L154622500 140652500
" />
<path d="M154622500 154622500
L140652500 154622500
" />
<path d="M140652500 154622500
L140652500 140652500
" />
<path d="M154622500 140652500
L154622500 154622500
" />
<path d="M140652500 112077500
L154622500 112077500
" />
<path d="M154622500 126047500
L140652500 126047500
" />
<path d="M154622500 112077500
L154622500 126047500
" />
<path d="M140652500 126047500
L140652500 112077500
" />
<path d="M107061000 149074000
L107061000 148424000
" />
<path d="M108181000 144184000
L105941000 144184000
" />
<path d="M105941000 144184000
L105941000 148424000
" />
<path d="M108181000 144904000
L105941000 144904000
" />
<path d="M107061000 143534000
L107061000 144184000
" />
<path d="M108181000 144784000
L105941000 144784000
" />
<path d="M108181000 145024000
L105941000 145024000
" />
<path d="M108181000 148424000
L108181000 144184000
" />
<path d="M105941000 148424000
L108181000 148424000
" />
<path d="M145133000 136450000
L144008000 136450000
" />
<path d="M145133000 136450000
L145133000 137850000
" />
<path d="M152083000 136450000
L150733000 136450000
" />
<path d="M145583000 130250000
L156108000 130250000
" />
<path d="M156108000 135850000
L158108000 135850000
" />
<path d="M156108000 130850000
L158108000 130850000
" />
<path d="M146683000 136450000
L146683000 137850000
" />
<path d="M156108000 136450000
L153733000 136450000
" />
<path d="M156108000 136450000
L156108000 135850000
" />
<path d="M156108000 130850000
L156108000 130250000
" />
<path d="M149083000 136450000
L146683000 136450000
" />
<path d="M158108000 135850000
L158108000 130850000
" />
<path d="M144008000 130250000
L144008000 136450000
" />
<g >
</g>
<g >
</g>
<g >
</g>
<g >
</g>
<g >
</g>
<g >
</g>
<g >
</g>
<g >
</g>
<g >
</g>
<g >
</g>
<g >
</g>
<g >
</g>
<g >
</g>
<g >
</g>
<g >
</g>
<g >
</g>
<g >
</g>
<g >
</g>
<g >
</g>
<g >
</g>
<g >
</g>
<g >
</g>
<g >
</g>
<g >
</g>
<g >
</g>
<g >
</g>
<g >
</g>
<g >
</g>
<g >
</g>
<g >
</g>
<g >
</g>
<g >
</g>
<g >
</g>
<g >
</g>
<g >
</g>
<g >
</g>
<g >
</g>
<g >
</g>
<g >
</g>
</g> 
</svg>
